<svg width="48" height="48" viewBox="0 0 48 48" fill="none" xmlns="http://www.w3.org/2000/svg">
<g clip-path="url(#clip0_119_7677)">
<path d="M20.0947 2.616H19.8453C19.0093 2.616 18.188 3.364 17.968 4.332L17.528 6.42933C17.1173 7.38266 16.4427 8.05733 15.3573 8.96666C14.14 9.964 13.7587 10.9613 13.5093 11.6213L13.4653 11.7533C13.1867 12.4573 12.9813 13.0587 12.8053 13.6013C12.3653 14.9213 12.028 15.948 10.9427 17.5173L7.39332 22.5187C6.29332 23.8973 6.41065 25.804 7.67198 26.8747C8.94798 27.96 12.072 28.796 13.128 28.796C13.348 28.796 13.6413 28.7667 13.8613 28.5613C14.3453 28.092 14.668 27.5787 14.9907 27.08C15.6947 25.98 16.208 25.188 18.012 25.1733C20.6813 25.1733 22.984 22.7387 24.084 21.58V21.5653L24.744 20.788C25.184 21.5067 25.6973 22.6653 25.36 23.868C25.2133 24.3813 24.9787 24.8507 24.656 25.3347C24.0253 26.244 23.116 27.0507 22.2067 27.784L22.148 27.828C19.8453 29.6907 16.0613 32.756 15.416 37.068C11.3533 38.1827 11.3533 41.0133 11.368 44.284V44.7827V45.3987H42.3587V44.2987C42.3587 41.0427 42.3733 38.1973 38.3107 37.0827C38.4427 36.5987 38.6187 35.968 38.8093 35.2787C39.616 32.4627 40.716 28.5907 40.716 26.068C40.716 20.0987 38.824 15.0827 35.26 11.5773C32.312 8.67333 28.3373 6.89866 24.04 6.56133L20.256 2.792L20.08 2.616H20.0947Z" fill="#4A4743"/>
<path d="M27.0026 38.6667C40.144 38.6667 41.508 40.1187 41.508 40.1187H41.684C41.0973 37.0093 34.204 36.672 34.204 36.672H19.8306C19.8306 36.672 12.7026 36.9213 12.3066 40.1187H12.4826C12.4826 40.1187 13.8466 38.6667 26.988 38.6667H27.0026Z" fill="#807B76"/>
<path d="M19.0387 8.70268C21.5027 7.17735 19.8307 3.21735 19.8307 3.21735C19.156 3.21735 18.496 3.61335 18.3053 4.43468L17.8653 6.54668C17.44 7.57335 16.736 8.29201 15.592 9.23068C14.448 10.184 14.096 11.0933 13.832 11.7533L13.788 11.8853C13.524 12.5747 13.3187 13.1613 13.1427 13.7187C12.7027 15.0533 12.3507 16.1093 11.2507 17.7227L7.70133 22.724C7.70133 22.724 7.61334 22.8267 7.56934 22.8707C6.42533 24.0587 7.276 25.232 7.276 25.232C7.276 25.232 13.084 18.0747 13.832 17.0627C15.196 15.244 14.3453 11.636 19.068 8.70268H19.0387Z" fill="#807B76"/>
<path d="M19.3906 11.6213C17.792 12.2667 17.3666 15.0093 17.3666 15.0093C18.9213 13.66 19.6693 15.2 21.2093 13.9827C22.5 12.9707 20.96 10.9907 19.3906 11.6213Z" fill="#383532"/>
<path d="M26.7386 16.5933C26.1813 17.664 24.8026 19.82 24.8026 19.82C24.8026 19.82 24.656 20.26 24.48 20.876C24.48 20.876 25.1106 20.8027 25.228 22.8267C25.2573 23.3547 25.5066 25.188 25.844 24.4107C26.7826 22.1373 27.428 19.3947 27.4133 18.456C27.4133 17.5173 27.2813 15.5227 26.7386 16.5933Z" fill="#383532"/>
<path d="M23.776 7.14799C23.776 7.14799 36.228 8.68799 36.228 20.612C36.228 28.5907 30.9187 30.82 29.5253 36.1733C29.5253 36.1733 35.4213 36.2173 38.032 37.4493C38.032 37.4493 40.8333 29.8667 40.8333 25.3787C40.8333 20.8907 37.3427 6.79599 23.776 7.14799Z" fill="#383532"/>
<path d="M19.1853 24.5573C16.3986 23.1933 15.7093 21.5653 14.6386 24.7773C13.5973 27.8867 12.028 28.4147 13.084 28.7373C14.14 29.06 15.4453 25.54 16.3693 25.496C17.2933 25.4373 20.2266 25.0707 19.1853 24.572V24.5573Z" fill="#383532"/>
<path d="M19.8307 3.21733L23.776 7.14799C31.4907 7.67599 40.1147 13.2787 40.1147 26.0533C40.1147 29.4413 37.9734 35.66 37.592 37.5227C41.9774 38.4467 41.772 41.072 41.772 44.768H11.9987C11.9987 41.116 11.7934 38.52 15.988 37.552C16.4134 33.2253 20.3587 30.072 22.6174 28.2533C23.6587 27.4027 24.5534 26.596 25.184 25.672C25.536 25.1587 25.8 24.6307 25.9614 24.0293C26.5187 22.0933 25.2574 20.348 24.8027 19.7907L23.6294 21.14C22.456 22.372 20.3587 24.528 17.9974 24.5427C14.932 24.5427 14.8587 26.6987 13.4214 28.092C13.3774 28.136 13.26 28.1507 13.1134 28.1507C12.116 28.1507 9.16803 27.3293 8.05336 26.376C7.07069 25.54 6.93869 23.9853 7.86269 22.856L11.4267 17.8253C13.0254 15.508 13.0987 14.276 14.008 11.9293C14.272 11.2693 14.5654 10.36 15.724 9.39199C16.8974 8.42399 17.6454 7.67599 18.1 6.56133L18.5547 4.41999C18.7014 3.75999 19.288 3.17333 19.8454 3.17333M20.344 1.95599H19.8454C18.716 1.95599 17.66 2.89466 17.3667 4.15599L16.9414 6.20933C16.5747 7.03066 15.988 7.61733 14.9614 8.46799C13.6267 9.56799 13.2014 10.6533 12.9374 11.372L12.8934 11.504C12.6147 12.2227 12.4094 12.8387 12.2187 13.396C11.7787 14.716 11.4707 15.6693 10.4294 17.1653L6.89469 22.1373C5.58936 23.7653 5.75069 26.0387 7.26136 27.3293C8.66936 28.5173 11.94 29.3973 13.1134 29.3973C13.304 29.3973 13.8614 29.3973 14.272 28.9867C14.8 28.4733 15.1667 27.9013 15.4894 27.4027C16.1494 26.3613 16.516 25.7893 18.012 25.7893C20.9454 25.7747 23.3654 23.2373 24.524 22.0053L24.6414 21.8733C24.8614 22.416 24.9787 23.0613 24.788 23.7067C24.6707 24.1467 24.4654 24.572 24.172 24.9973C23.6 25.848 22.7054 26.6107 21.84 27.3147L21.7667 27.3733C19.4787 29.236 15.724 32.272 14.888 36.5987C10.752 37.9187 10.752 41.16 10.7667 44.284V44.768V45.9853H42.9747V44.2693C42.9747 41.1893 42.9894 38.0067 39.0587 36.6427C39.1614 36.276 39.2787 35.8653 39.396 35.4253C40.2027 32.5653 41.3174 28.6493 41.3174 26.0387C41.3174 13.1907 32.8547 6.73733 24.304 5.94533L20.696 2.35199L20.344 1.99999V1.95599Z" fill="#383532"/>
<path d="M27.0027 36.8333C30.596 36.8333 33.7934 36.98 36.5653 37.3467C37.152 37.42 37.68 37.5227 38.1347 37.64L38.34 36.4373C37.856 36.32 37.3134 36.2173 36.712 36.144C33.984 35.792 30.8014 35.6307 26.988 35.6307C23.1747 35.6307 19.992 35.792 17.264 36.144C16.6333 36.2173 16.076 36.3347 15.5627 36.4667L15.812 37.6547C16.2813 37.5373 16.824 37.4347 17.4253 37.3613C20.212 37.0093 23.3947 36.848 26.988 36.848L27.0027 36.8333Z" fill="#383532"/>
</g>
<defs>
<clipPath id="clip0_119_7677">
<rect width="48" height="48" fill="white"/>
</clipPath>
</defs>
</svg>
