<svg width="48" height="48" viewBox="0 0 48 48" fill="none" xmlns="http://www.w3.org/2000/svg">
<g clip-path="url(#clip0_119_7658)">
<path d="M42.304 2H5.696C3.65476 2 2 3.65476 2 5.696V42.304C2 44.3452 3.65476 46 5.696 46H42.304C44.3452 46 46 44.3452 46 42.304V5.696C46 3.65476 44.3452 2 42.304 2Z" fill="#4A4743"/>
<path d="M24 4.93332H42.436C42.8467 4.93332 43.1987 5.27065 43.1987 5.69599V42.3186C43.1987 42.744 42.8613 43.0813 42.436 43.0813H24V4.93332Z" fill="white"/>
<path d="M36.7893 16.2707V32.36H33.7973V18.7787H30.3947V16.2707H36.7893Z" fill="#4A4743"/>
<path d="M9.50931 31.6267C8.49731 30.9813 7.70531 30.028 7.11865 28.7813C6.53198 27.5347 6.23865 26.0533 6.23865 24.3373C6.23865 22.6213 6.53198 21.14 7.11865 19.8933C7.70531 18.6467 8.49731 17.6933 9.50931 17.048C10.5213 16.4027 11.6653 16.0653 12.956 16.0653C14.2466 16.0653 15.3906 16.388 16.4173 17.048C17.4293 17.708 18.236 18.6467 18.8226 19.8933C19.4093 21.14 19.7026 22.6213 19.7026 24.3373C19.7026 26.0533 19.4093 27.5347 18.8226 28.7813C18.236 30.028 17.444 30.9813 16.4173 31.6267C15.3906 32.2867 14.2466 32.6093 12.956 32.6093C11.6653 32.6093 10.5213 32.2867 9.50931 31.6267ZM15.684 28.576C16.3586 27.6227 16.6813 26.2147 16.6813 24.3227C16.6813 22.4307 16.344 21.0227 15.684 20.0693C15.0093 19.116 14.1146 18.6467 12.956 18.6467C11.7973 18.6467 10.9173 19.116 10.2573 20.0693C9.59731 21.0227 9.25998 22.4453 9.25998 24.3227C9.25998 26.2 9.59731 27.6227 10.2573 28.576C10.932 29.5293 11.8266 29.9987 12.956 29.9987C14.0853 29.9987 15.0093 29.5293 15.684 28.576Z" fill="white"/>
</g>
<defs>
<clipPath id="clip0_119_7658">
<rect width="48" height="48" fill="white"/>
</clipPath>
</defs>
</svg>
