<svg width="48" height="48" viewBox="0 0 48 48" fill="none" xmlns="http://www.w3.org/2000/svg">
<g clip-path="url(#clip0_119_7682)">
<path d="M24.38 2.66C22.9427 2.66 20.9773 2.924 20.904 2.93867L20.42 2.99734L20.3467 3.46667L19.408 9.04H17.8093L16.108 4.18534L15.9467 3.74534H15.4773C13.732 3.74534 12.0893 4.156 10.5787 4.97734L10.1973 5.18267L10.2267 5.608L10.7693 12.252V12.2813C11.092 14.6573 12.3093 16.1387 14.7 17.0187C14.3627 19.8493 12.808 33.1227 12.412 36.276C7.63066 37.4053 7.64533 40.544 7.64533 44.152V44.6947V45.3547H41.1V44.1667C41.1 40.5587 41.1147 37.42 36.3333 36.2907C35.9373 33.1373 34.3827 19.864 34.0453 17.0333C36.436 16.1533 37.6533 14.672 37.976 12.296V12.2667L38.5187 5.62267L38.548 5.19734L38.1667 4.992C36.656 4.17067 35.0133 3.76 33.268 3.76H32.7987L32.652 4.2L30.9507 9.05467H29.352L28.4133 3.48134L28.34 3.012L27.856 2.95334C27.768 2.95334 25.8173 2.67467 24.38 2.67467V2.66Z" fill="#4A4743"/>
<path d="M24.38 38.08C38.5626 38.08 40.044 39.6493 40.044 39.6493H40.2346C39.604 36.3053 32.168 35.924 32.168 35.924H16.6653C16.6653 35.924 8.96531 36.188 8.53998 39.6493H8.73064C8.73064 39.6493 10.1973 38.08 24.3946 38.08H24.38Z" fill="#807B76"/>
<path d="M14.5094 3.83333C10.9747 6.25333 12.2947 15.3173 12.2947 15.3173C10.036 14.5987 10.0947 4.87466 10.0947 4.87466C10.0947 4.87466 15.5214 3.144 14.5094 3.83333Z" fill="#807B76"/>
<path d="M25.436 3.11465C21.4907 3.83332 19.9653 9.58265 19.9653 9.58265C20.2293 5.28532 21.124 2.82132 21.124 2.82132C21.124 2.82132 26.5653 2.90932 25.436 3.11465Z" fill="#807B76"/>
<path d="M35.9667 4.30266C33.4147 5.65199 31.4347 9.58266 31.4347 9.58266C31.288 8.18932 33.2387 3.33466 33.2387 3.33466C33.2387 3.33466 36.92 3.80399 35.9667 4.30266Z" fill="#807B76"/>
<path d="M35.5413 16.256C39.032 16.344 38.416 5.46134 38.416 5.46134L36.3187 4.12668C35.7467 7.60268 34.9987 12.9853 33.2973 14.4813C31.7427 15.8453 30.804 16.168 30.5693 16.2267C30.1147 16.168 29.6307 16.1093 29.1027 16.0653C24.3213 15.64 17.3693 17.004 17.3693 17.004C17.3693 17.004 24.4093 16.5787 28.0027 21.096C31.5813 25.584 31.9627 35.3813 31.9627 35.3813C34.324 35.8213 36.084 36.3053 36.084 36.3053L33.8693 17.3853C33.8693 17.3853 35.072 16.256 35.5413 16.2707V16.256Z" fill="#383532"/>
<path d="M14.8613 17.0627C18.308 16.564 22.18 16.212 24.38 16.212C26.58 16.212 30.408 16.5493 33.84 17.048" stroke="#383532" stroke-width="0.9" stroke-miterlimit="10"/>
<path d="M24.38 36.1C28.2666 36.1 31.6986 36.2613 34.7053 36.6427C35.336 36.716 35.908 36.8333 36.4066 36.9507L36.6266 35.6453C36.0986 35.5133 35.512 35.4107 34.8666 35.3227C31.9186 34.9413 28.4866 34.7653 24.3653 34.7653C20.244 34.7653 16.812 34.9413 13.864 35.3227C13.1893 35.4107 12.5733 35.528 12.0306 35.66L12.2946 36.9507C12.808 36.8187 13.38 36.716 14.0253 36.628C17.032 36.2467 20.4786 36.0853 24.3506 36.0853L24.38 36.1Z" fill="#383532"/>
<path d="M24.38 3.31999C25.788 3.31999 27.4453 3.59865 27.4453 3.59865L28.1493 9.71466H32.0947L33.2973 4.41999C34.94 4.41999 36.4653 4.80132 37.888 5.56399L37.3453 12.1933C37.0667 14.2173 36.1427 15.684 33.356 16.564C33.356 16.564 35.4827 34.6333 35.7613 36.804C40.704 37.772 40.4547 40.6173 40.4547 44.6653H8.32C8.32 40.6173 8.08533 37.772 13.0133 36.804C13.3067 34.6187 15.4187 16.564 15.4187 16.564C12.632 15.684 11.6933 14.2173 11.4293 12.1933L10.8867 5.56399C12.3093 4.80132 13.8347 4.41999 15.4773 4.41999L16.68 9.71466H20.6253L21.3293 3.59865C21.3293 3.59865 22.972 3.31999 24.3947 3.31999M24.3947 1.99999C22.8987 1.99999 21.1973 2.27865 21.124 2.29332L20.1413 2.45465L20.024 3.43732L19.452 8.39466H17.736L16.768 4.12665L16.5333 3.09999H15.4773C13.6293 3.09999 11.8693 3.53999 10.256 4.40532L9.49333 4.81599L9.56667 5.66665L10.1093 12.296C10.4467 14.8333 11.664 16.4467 13.9813 17.444C13.5707 20.92 12.2507 32.1547 11.8107 35.748C6.98533 37.0973 7 40.676 7 44.152V44.68V46H41.7747V44.152C41.7747 40.676 41.7893 37.0973 36.9493 35.748C36.5093 32.1693 35.1893 20.92 34.7787 17.444C37.1107 16.4467 38.3133 14.848 38.6507 12.3693L39.208 5.66665L39.2813 4.80132L38.5187 4.39065C36.9053 3.52532 35.16 3.08532 33.2973 3.08532H32.2413L32.0067 4.11199L31.0387 8.37999H29.3227L28.7507 3.42265L28.6333 2.43999L27.6507 2.27865C27.6507 2.27865 25.876 1.98532 24.38 1.98532L24.3947 1.99999Z" fill="#383532"/>
</g>
<defs>
<clipPath id="clip0_119_7682">
<rect width="48" height="48" fill="white"/>
</clipPath>
</defs>
</svg>
