<svg width="48" height="48" viewBox="0 0 48 48" fill="none" xmlns="http://www.w3.org/2000/svg">
<g clip-path="url(#clip0_119_7671)">
<path d="M24.0574 2.71866C19.5107 2.71866 15.8147 6.41466 15.8147 10.9613C15.8147 13.4987 16.9734 15.8747 18.9387 17.4293L14.656 20.2453L14.3334 20.4507V20.8467C14.3334 22.02 14.612 22.548 15.052 23.3253L15.1987 23.5893L15.404 23.9707H19.452C19.276 25.98 18.7187 31.0253 12.2654 35.088C9.37602 36.9067 7.71869 40.3533 7.71869 44.5627V45.2813H40.396V44.5627C40.396 40.368 38.7387 36.9067 35.8494 35.088C29.4107 31.04 28.8534 25.98 28.6627 23.9707H32.7107L32.916 23.5893L33.0627 23.3253C33.488 22.5333 33.7814 22.02 33.7814 20.8467V20.4507L33.4587 20.2453L29.176 17.4293C31.156 15.8747 32.3147 13.4987 32.3147 10.9613C32.3147 6.41466 28.6187 2.71866 24.072 2.71866H24.0574Z" fill="#4A4743"/>
<path d="M33.1067 33.3133C29.2347 30.6147 28.9853 25.3493 28.736 24.1467H32.6227L34.016 20.92C34.016 20.92 29.924 17.5907 27.9293 17.5173H28.912C28.912 17.5173 31.86 15.068 32.124 12.8973C33.136 4.25867 26.3307 3.10001 26.3307 3.10001C29.4107 4.64001 31.7427 9.89067 28.9707 13.8067C26.9907 16.608 23.1187 17.444 23.1187 17.444H27.9C27.9 17.444 31.2733 21.0373 27.856 23.252H15.14L15.3013 24.1467H19.408C19.408 24.1467 24.16 28.9573 28.1053 32.668C31.8893 36.232 37.624 36.7307 37.624 36.7307C37.624 36.7307 35.072 34.6773 33.1067 33.2987V33.3133Z" fill="#383532"/>
<path d="M18.6894 20.832C18.924 19.2333 20.2 17.4733 20.244 17.444L14.2014 20.8173H18.6894V20.832Z" fill="#807B76"/>
<path d="M24.8053 3.46666C21.916 3.73066 17.3253 7.16265 16.7973 14.2613C16.7973 14.2613 13.8933 10.0813 17.8973 5.47599C21.0507 1.85332 24.8053 3.46666 24.8053 3.46666Z" fill="#807B76"/>
<path d="M8.43731 44.5627C10.0066 39.4293 12.2066 38.7547 16.284 35.792C18.9826 33.8267 19.3493 27.872 19.3493 27.872C19.408 27.564 17.9706 30.2627 16.4306 31.5973C15.932 32.0373 12.4853 34.4133 11.0186 35.968C8.46664 38.6667 8.12931 45.5307 8.42264 44.548L8.43731 44.5627Z" fill="#807B76"/>
<path d="M24.1453 3.43734C28.296 3.45201 31.6547 6.84001 31.64 10.9907C31.64 13.484 30.3933 15.8013 28.3107 17.1947L27.9147 17.4587L33.048 20.876C33.048 21.976 32.784 22.328 32.256 23.2813H27.8413L27.8707 23.6187C28.032 25.2613 28.12 31.1427 35.38 35.748C38.0493 37.4347 39.5747 40.676 39.5453 44.6213L8.30533 44.4747C8.31999 40.5293 9.87466 37.3027 12.5587 35.6307C19.8773 31.084 19.9947 25.2173 20.1707 23.5747L20.2147 23.2227H15.8C15.2867 22.2547 15.0373 21.888 15.0373 20.788L20.2 17.4147L19.804 17.1507C17.7507 15.728 16.5333 13.396 16.5333 10.9027C16.548 6.75201 19.9507 3.39334 24.1013 3.40801M24.0133 1.97067C19.0707 1.97067 15.052 5.98934 15.052 10.932C15.052 13.352 16.0347 15.6547 17.7213 17.312L14.2307 19.6147L13.5853 20.04V20.8173C13.5853 22.1813 13.9373 22.8267 14.392 23.648L14.524 23.8973L14.9347 24.6453H18.616C18.3227 26.8893 17.2813 31.0253 11.84 34.4427C8.73066 36.3933 6.95599 40.06 6.95599 44.5187V45.956H41.0707V44.5187C41.0707 40.06 39.296 36.3933 36.1867 34.4427C30.76 31.04 29.704 26.8893 29.4107 24.6453H33.092L33.5027 23.8973L33.6347 23.648C34.0893 22.8267 34.4413 22.1667 34.4413 20.8173V20.04L33.796 19.6147L30.3053 17.312C32.0067 15.64 32.9747 13.352 32.9747 10.932C32.9747 5.98934 28.956 1.97067 24.0133 1.97067Z" fill="#383532"/>
</g>
<defs>
<clipPath id="clip0_119_7671">
<rect width="48" height="48" fill="white"/>
</clipPath>
</defs>
</svg>
