<svg width="48" height="48" viewBox="0 0 48 48" fill="none" xmlns="http://www.w3.org/2000/svg">
<g clip-path="url(#clip0_119_7679)">
<path d="M30.028 2.616C27.564 2.616 25.5547 4.62533 25.5547 7.08933C25.5547 8.39466 26.1853 9.656 27.212 10.4333L23.736 20.48L20.26 10.4333C21.2867 9.656 21.9173 8.39466 21.9173 7.08933C21.9173 4.62533 19.908 2.616 17.444 2.616C14.98 2.616 12.9707 4.58133 12.9707 7.08933C12.9707 8.96666 14.1293 10.58 15.7867 11.1227L15.2293 22.9733L10.4187 17.84C10.712 17.3707 11.108 16.5787 11.108 15.7133C11.108 13.44 9.14268 11.4453 6.89868 11.4453C5.75468 11.4453 4.68401 11.8853 3.87734 12.692C3.07068 13.4987 2.63068 14.5693 2.63068 15.7133C2.63068 17.7227 4.30268 19.644 6.16534 19.8933L13.22 36.8627C8.18934 37.8013 8.20401 40.8227 8.20401 44.2987V44.7973V45.4133H39.268V44.3133C39.268 40.8373 39.2827 37.816 34.252 36.8773L41.3067 19.908C43.184 19.6587 44.856 17.7373 44.856 15.728C44.856 13.3813 42.9347 11.46 40.588 11.46C38.2413 11.46 36.3787 13.4547 36.3787 15.728C36.3787 16.5933 36.7747 17.3853 37.068 17.8547L32.2427 22.988L31.6853 11.1373C33.328 10.5947 34.5013 8.952 34.5013 7.11866C34.5013 4.61066 32.536 2.64533 30.028 2.64533V2.616Z" fill="#4A4743"/>
<path d="M8.336 12.3107C9.964 14.3933 7.16267 16.2267 8.71734 17.9133L15.816 24.484L10.492 17.4293C10.492 17.4293 11.1667 15.6987 10.7413 14.4373C9.788 11.592 8.32134 12.296 8.32134 12.296L8.336 12.3107Z" fill="#383532"/>
<path d="M7.77866 12.0027C6.31199 12.1347 4.03866 13.792 3.52532 17.1507C3.49599 17.3853 1.85332 15.6253 4.02399 13.1027C5.72532 11.1227 7.79332 11.988 7.79332 11.988L7.77866 12.0027Z" fill="#807B76"/>
<path d="M41.556 12.0027C40.0893 12.1347 37.816 13.792 37.3026 17.1507C37.2586 17.3853 35.6306 15.6253 37.8013 13.1027C39.5173 11.1227 41.5706 11.988 41.5706 11.988L41.556 12.0027Z" fill="#807B76"/>
<path d="M18.2214 3.26135C16.652 3.42268 14.1734 5.34401 13.9387 9.21601C13.9387 9.21601 12.3254 6.95735 14.4667 4.42001C16.1534 2.41068 18.2214 3.26135 18.2214 3.26135Z" fill="#807B76"/>
<path d="M30.732 3.26135C29.1626 3.42268 26.684 5.34401 26.4493 9.21601C26.4493 9.21601 24.836 6.95735 26.9773 4.42001C28.664 2.41068 30.732 3.26135 30.732 3.26135Z" fill="#807B76"/>
<path d="M23.912 38.6373C37.0826 38.6373 38.4613 40.0893 38.4613 40.0893H38.6373C38.0506 36.98 31.1426 36.628 31.1426 36.628H16.7253C16.7253 36.628 9.58265 36.8773 9.18665 40.0893H9.36265C9.36265 40.0893 10.7266 38.6373 23.912 38.6373Z" fill="#807B76"/>
<path d="M30.028 3.21735C32.2133 3.21735 33.8853 4.88935 33.8853 7.07468C33.8853 8.90801 32.58 10.36 31.04 10.624L31.7 24.4107L37.8453 17.8547C37.8453 17.8547 36.98 16.8133 36.98 15.6693C36.98 13.6453 38.7546 12.0173 40.588 12.0173C42.612 12.0173 44.24 13.6453 44.24 15.6693C44.24 17.5467 42.568 19.2773 40.896 19.2773L33.4013 37.3027C38.916 38.0213 38.6666 40.764 38.6666 44.7533H8.80531C8.80531 40.764 8.55598 38.0213 14.0706 37.3027L6.57598 19.292C4.90398 19.292 3.23198 17.5613 3.23198 15.684C3.23198 13.66 4.85998 12.032 6.88398 12.032C8.71732 12.032 10.492 13.66 10.492 15.684C10.492 16.8133 9.62665 17.8693 9.62665 17.8693L15.772 24.4253L16.432 10.6387C14.8626 10.36 13.5866 8.90801 13.5866 7.08935C13.5866 4.90401 15.2586 3.23201 17.444 3.23201C19.468 3.23201 21.3013 4.86001 21.3013 7.08935C21.3013 8.36535 20.5826 9.58268 19.5266 10.184L23.736 22.3427L27.9453 10.184C26.8893 9.56801 26.1706 8.35068 26.1706 7.08935C26.1706 4.86001 28.004 3.23201 30.028 3.23201M30.028 2.01468C27.2267 2.01468 24.9533 4.28801 24.9533 7.08935C24.9533 8.42401 25.54 9.72935 26.508 10.624L23.736 18.6027L20.964 10.624C21.932 9.72935 22.5186 8.42401 22.5186 7.08935C22.5186 4.28801 20.2453 2.01468 17.444 2.01468C14.6426 2.01468 12.3693 4.24401 12.3693 7.08935C12.3693 9.06935 13.4986 10.7853 15.1706 11.5333L14.7013 21.492L11.1813 17.7373C11.46 17.2093 11.724 16.4907 11.724 15.6987C11.724 13.1027 9.46532 10.8147 6.89865 10.8147C4.33198 10.8147 2.01465 13 2.01465 15.6987C2.01465 17.9133 3.70132 19.9667 5.72532 20.4213L12.3693 36.3933C7.57332 37.5813 7.58798 40.8373 7.58798 44.284V44.7827V46H39.884V44.284C39.884 40.852 39.8986 37.5813 35.1026 36.3933L41.7467 20.4213C43.7853 19.952 45.4573 17.9133 45.4573 15.6987C45.4573 13.0147 43.272 10.8147 40.5733 10.8147C37.8746 10.8147 35.748 13.088 35.748 15.6987C35.748 16.476 36.012 17.1947 36.2906 17.7373L32.7706 21.492L32.3013 11.5187C33.9586 10.7707 35.1026 9.02535 35.1026 7.08935C35.1026 4.24401 32.8733 2.01468 30.028 2.01468Z" fill="#383532"/>
<path d="M31.1867 30.468C26.376 35.6747 21.5947 35.5133 21.5947 35.5133L33.7533 36.4667L40.8813 19.6147C40.8813 19.6147 42.7293 19.6147 43.7707 17.444C45.5013 13.836 42.084 12.3693 42.084 12.3693C43.184 13.6453 43.0227 15.552 42.084 16.4173C41.1747 17.2533 39.6787 17.4293 39.1213 18.7053C39.1213 18.7053 35.7773 25.496 31.1867 30.468Z" fill="#383532"/>
<path d="M31.216 3.40799C33.548 6.63466 29.104 7.67599 29.3826 10.6093L31.7 24.4107L31.1426 11.2107C31.1426 11.2107 34.2226 9.34799 33.9586 7.10399C33.5186 3.59866 31.216 3.40799 31.216 3.40799Z" fill="#383532"/>
<path d="M17.9573 10.448L23.736 22.3427L19.9373 10.7707C19.9373 10.7707 21.272 8.83466 21.272 7.16266C21.272 4.08266 18.6907 3.48132 18.6907 3.48132C21.184 6.82532 16.9893 7.54399 17.972 10.4627L17.9573 10.448Z" fill="#383532"/>
<path d="M23.912 36.804C27.52 36.804 30.7173 36.9507 33.504 37.3173C34.0907 37.3907 34.6187 37.4933 35.088 37.6107L35.2933 36.408C34.8093 36.2907 34.252 36.188 33.6653 36.1147C30.9373 35.7627 27.74 35.6013 23.912 35.6013C20.084 35.6013 16.9013 35.7627 14.1587 36.1147C13.528 36.188 12.956 36.3053 12.4573 36.4373L12.7067 37.64C13.176 37.5227 13.7187 37.42 14.32 37.3467C17.1067 36.9947 20.304 36.8333 23.912 36.8333V36.804Z" fill="#383532"/>
</g>
<defs>
<clipPath id="clip0_119_7679">
<rect width="48" height="48" fill="white"/>
</clipPath>
</defs>
</svg>
