<svg width="48" height="48" viewBox="0 0 48 48" fill="none" xmlns="http://www.w3.org/2000/svg">
<g clip-path="url(#clip0_119_7675)">
<path d="M41.0307 16.1973C39.3 14.4373 36.8947 13.4547 34.2253 13.4547C30.7933 13.4547 28.52 14.4667 27.2587 15.244L26.3933 11.46H29.84V6.136H26.2907V2.58667H20.9667V6.136H17.4173V11.46H20.864L19.9987 15.244C18.752 14.4667 16.4787 13.4547 13.032 13.4547C10.3627 13.4547 7.95733 14.4227 6.22666 16.1973C4.496 17.972 3.54266 20.48 3.54266 23.252C3.54266 27.2707 6.10933 29.8373 8.588 32.3013C10.1133 33.8267 11.6827 35.396 12.7093 37.3173C8.588 38.3587 8.60266 41.1453 8.60266 44.3427V44.812V45.3987H38.6107V44.328C38.6107 41.1307 38.6107 38.344 34.504 37.3027C35.5307 35.3813 37.1 33.7973 38.6253 32.2867C41.104 29.808 43.6707 27.256 43.6707 23.2373C43.6707 20.4653 42.7173 17.9573 40.9867 16.1827L41.0307 16.1973ZM34.9293 24.2933C34.6507 26.2 31.8493 27.8573 29.972 30.2627C29.0333 30.204 28.4467 30.16 27.6547 30.116V22.7533C27.6547 22.7533 30.016 21.0667 31.908 21.0667C31.908 21.0667 35.3693 21.184 34.9293 24.2933ZM15.4227 21.0667C17.3293 21.0667 19.6907 22.7533 19.6907 22.7533V30.116C18.8987 30.16 18.312 30.204 17.3587 30.2627C15.4813 27.8573 12.68 26.2 12.4013 24.2933C11.9613 21.184 15.4227 21.0667 15.4227 21.0667Z" fill="#4A4743"/>
<path d="M29.8547 7.324H25.1467L26.0267 6.37067H29.8547V7.324Z" fill="#807B76"/>
<path d="M25.132 3.77467H22.184V7.324H18.6347V10.272L17.4467 11.46V6.136H20.996V2.58667H26.32L25.132 3.77467Z" fill="#807B76"/>
<path d="M23.6507 38.9013C36.3813 38.9013 37.7013 40.3093 37.7013 40.3093H37.8773C37.3053 37.3027 30.6467 36.98 30.6467 36.98H16.728C16.728 36.98 9.81999 37.2147 9.43866 40.3093H9.61466C9.61466 40.3093 10.9347 38.9013 23.6653 38.9013H23.6507Z" fill="#807B76"/>
<path d="M15.892 14.2027C15.892 14.2027 9.62935 12.0613 5.77202 16.784C0.418687 23.3107 6.47602 29.5147 6.47602 29.5147C2.54535 22.328 6.81335 13.8067 15.9067 14.2173L15.892 14.2027Z" fill="#807B76"/>
<path d="M39.6667 27.9453L30.896 36.7453L34.548 37.3173C34.548 37.3173 36.132 34.604 39.0507 31.8027C41.9693 29.0013 43.7147 27.1093 43.7147 22.4747C43.7147 19.072 41.9987 17.5613 40.4733 16.344C40.4733 16.344 44.1693 23.4427 39.6667 27.96V27.9453Z" fill="#383532"/>
<path d="M31.908 21.58C33.14 21.58 34.46 22.1373 34.46 23.7213C34.46 24.704 33.4333 25.7747 32.0253 27.2707C31.3507 27.9747 30.6173 28.752 29.8547 29.6613C29.444 29.632 28.9013 29.6027 28.388 29.5733V22.944C29.4587 22.064 30.72 21.58 31.908 21.58ZM31.908 20.392C30.3973 20.392 28.6667 21.0227 27.2 22.416V30.7027C27.9187 30.732 30.3827 30.8787 30.3827 30.8787C33.052 27.564 35.648 25.8773 35.648 23.7213C35.648 21.5653 33.9907 20.4067 31.908 20.4067V20.392Z" fill="#383532"/>
<path d="M15.408 21.58C16.596 21.58 17.8574 22.0787 18.928 22.944V29.5733C18.4294 29.6027 17.872 29.632 17.4614 29.6613C16.6987 28.752 15.9507 27.96 15.2907 27.2707C13.868 25.7747 12.856 24.704 12.856 23.7213C12.856 22.152 14.176 21.58 15.408 21.58ZM15.408 20.392C13.3254 20.392 11.668 21.5947 11.668 23.7067C11.668 25.8187 14.264 27.5493 16.9334 30.864C16.9334 30.864 19.3827 30.7173 20.1014 30.688V22.4013C18.6347 21.0227 16.904 20.3773 15.3934 20.3773L15.408 20.392Z" fill="#383532"/>
<path d="M23.6506 37.1267C27.1266 37.1267 30.2213 37.2733 32.92 37.6107C33.492 37.684 33.9906 37.772 34.4453 37.8893L34.636 36.716C34.1666 36.5987 33.6386 36.496 33.0666 36.4227C30.4266 36.0853 27.3466 35.924 23.6506 35.924C19.9546 35.924 16.8746 36.0853 14.2346 36.4227C13.6333 36.496 13.076 36.5987 12.592 36.7307L12.8413 37.8893C13.296 37.772 13.8093 37.6693 14.396 37.596C17.0946 37.2587 20.1746 37.112 23.6653 37.112L23.6506 37.1267Z" fill="#383532"/>
<path d="M25.7187 3.188V6.73733H29.268V10.8733H25.7187L26.8187 15.7867C26.8187 15.7867 29.9134 14.056 34.2254 14.056C39.3587 14.056 43.128 17.8107 43.128 23.252C43.128 29.676 36.2054 32.0813 33.6827 37.7427C38.2734 38.5787 38.0534 41.16 38.0534 44.8267H9.24802C9.24802 41.1453 9.02802 38.5787 13.6187 37.7427C11.1107 32.0813 4.18802 29.676 4.18802 23.252C4.18802 17.8107 7.94269 14.056 13.0907 14.056C17.388 14.056 20.4974 15.6987 20.4974 15.6987L21.612 10.8733H18.0627V6.73733H21.612V3.188H25.748M26.936 2H20.4387V5.54933H16.8894V12.0467H20.1307L19.676 14.056C18.2827 13.5427 15.936 12.868 13.1054 12.868C7.26802 12.868 3.02936 17.2387 3.02936 23.252C3.02936 27.52 5.68402 30.16 8.25069 32.7267C9.57069 34.0467 10.9347 35.396 11.9027 36.98C8.07469 38.3 8.07469 41.38 8.08936 44.3573V44.8267V46.0147H39.2707V44.3573C39.2707 41.3653 39.2854 38.2853 35.4574 36.98C36.4254 35.396 37.7894 34.0467 39.1094 32.7267C41.676 30.1747 44.3307 27.52 44.3307 23.252C44.3307 17.2387 40.092 12.868 34.2547 12.868C31.424 12.868 29.092 13.5573 27.684 14.1147L27.2147 12.0613H30.4707V5.54933H26.9214V2H26.936Z" fill="#383532"/>
</g>
<defs>
<clipPath id="clip0_119_7675">
<rect width="48" height="48" fill="white"/>
</clipPath>
</defs>
</svg>
