<svg width="48" height="48" viewBox="0 0 48 48" fill="none" xmlns="http://www.w3.org/2000/svg">
<g clip-path="url(#clip0_119_7663)">
<path d="M9.09 14.084H10.42L10.728 12.572L9.258 10.78L7.774 12.572L7.228 14.812H8.502L9.09 14.084Z" fill="#807B76"/>
<path d="M8.73999 13.006H11.792L12.198 10.78H9.25799L8.73999 13.006Z" fill="#E8E6E1"/>
<path d="M7.99801 18.914H9.44001L9.80401 17.066L8.23601 15.274L6.65401 17.066L6.01001 19.628H7.36801L7.99801 18.914Z" fill="#807B76"/>
<path d="M7.64801 17.836H10.924L11.386 15.274H8.23601L7.64801 17.836Z" fill="#E8E6E1"/>
<path d="M6.72399 24.472H8.29199L8.75399 22.232L7.05999 20.44L5.36599 22.232L4.62399 25.2H6.05199L6.72399 24.472Z" fill="#807B76"/>
<path d="M6.388 23.394H9.916L10.448 20.44H7.06L6.388 23.394Z" fill="#E8E6E1"/>
<path d="M5.254 30.982H6.962L7.522 28.224L5.702 26.432L3.868 28.224L3 31.696H4.526L5.254 30.982Z" fill="#807B76"/>
<path d="M4.90399 29.904H8.72599L9.35599 26.432H5.70199L4.90399 29.904Z" fill="#E8E6E1"/>
<path d="M33.744 10.682H14.27C12.576 10.682 10.994 11.662 10.742 12.936L6.836 32.06C6.388 34.272 7.928 36.162 10.322 36.162H37.72C40.114 36.162 41.654 34.272 41.206 32.06L37.3 12.936C37.034 11.676 35.466 10.682 33.772 10.682H33.744Z" fill="#B3ACA8"/>
<path d="M10.308 35.434L6.73801 32.83V29.708L10.308 29.582V35.434Z" fill="#807B76"/>
<path d="M37.706 35.434L41.276 32.83V29.708L37.706 29.582V35.434Z" fill="#807B76"/>
<path d="M38.91 14.084H37.58L37.272 12.572L38.742 10.78L40.226 12.572L40.772 14.812H39.498L38.91 14.084Z" fill="#807B76"/>
<path d="M39.246 13.006H36.208L35.802 10.78H38.742L39.246 13.006Z" fill="#E8E6E1"/>
<path d="M40.002 18.914H38.56L38.196 17.066L39.764 15.274L41.346 17.066L41.99 19.628H40.632L40.002 18.914Z" fill="#807B76"/>
<path d="M40.352 17.836H37.076L36.614 15.274H39.764L40.352 17.836Z" fill="#E8E6E1"/>
<path d="M41.276 24.472H39.708L39.246 22.232L40.94 20.44L42.634 22.232L43.376 25.2H41.948L41.276 24.472Z" fill="#807B76"/>
<path d="M41.612 23.394H38.084L37.552 20.44H40.94L41.612 23.394Z" fill="#E8E6E1"/>
<path d="M42.746 30.982H41.038L40.478 28.224L42.298 26.432L44.132 28.224L45 31.696H43.474L42.746 30.982Z" fill="#807B76"/>
<path d="M43.096 29.904H39.274L38.644 26.432H42.298L43.096 29.904Z" fill="#E8E6E1"/>
<path d="M35.256 13.72L34.864 11.802C34.612 10.71 33.954 10.36 32.61 10.36H29.46L29.572 13.706H35.256V13.72Z" fill="#7BBD4E"/>
<path d="M37.706 33.096H10.308V35.434H37.706V33.096Z" fill="#807B76"/>
<path d="M34.15 40.11L33.702 35.952H37.706L38.35 40.11H34.15Z" fill="#D1CCC5"/>
<path d="M33.94 40.11L33.478 35.434V34.006L38.126 40.11H33.94Z" fill="#807B76"/>
<path d="M25.988 40.11L25.904 35.952H29.908L30.188 40.11H25.988Z" fill="#A1A0A0"/>
<path d="M25.946 40.11L25.862 34.006L29.852 35.952L30.132 40.11H25.946Z" fill="#807B76"/>
<path d="M17.826 40.11L18.106 35.952H22.11L22.012 40.11H17.826Z" fill="#A1A0A0"/>
<path d="M17.868 40.11L18.148 35.952L22.152 34.006L22.054 40.11H17.868Z" fill="#807B76"/>
<path d="M9.664 40.11L10.308 35.952H14.312L13.85 40.11H9.664Z" fill="#D1CCC5"/>
<path d="M9.87399 40.11L14.522 34.006V35.434L14.06 40.11H9.87399Z" fill="#807B76"/>
<path d="M37.398 34.006H33.478L33.716 36.148H37.734L37.398 34.006Z" fill="#E8E6E1"/>
<path d="M29.768 34.006H25.862L25.904 36.148H29.922L29.768 34.006Z" fill="#E8E6E1"/>
<path d="M22.152 34.006H18.232L18.092 36.148H22.096L22.152 34.006Z" fill="#E8E6E1"/>
<path d="M14.522 34.006H10.602L10.266 36.148H14.284L14.522 34.006Z" fill="#E8E6E1"/>
<path d="M14.256 7.812H33.73C35.424 7.812 37.006 8.806 37.258 10.066L41.164 29.19C41.612 31.402 40.072 33.292 37.678 33.292H10.308C7.91399 33.292 6.37399 31.402 6.82199 29.19L10.728 10.052C10.994 8.792 12.562 7.798 14.256 7.798V7.812Z" fill="#383532"/>
<path d="M14.256 7H33.73C35.424 7 37.006 7.994 37.258 9.254L41.164 28.378C41.612 30.59 40.072 32.48 37.678 32.48H10.308C7.91399 32.48 6.37399 30.59 6.82199 28.378L10.728 9.254C10.994 7.994 12.562 7 14.256 7Z" fill="#4A4743"/>
<path d="M35.256 12.908L34.864 10.99C34.612 9.898 33.954 9.548 32.61 9.548H29.46L29.572 12.894H35.256V12.908Z" fill="#5D9948"/>
<path d="M34.206 12.908L33.912 11.396C33.758 10.752 33.366 10.542 32.568 10.542H29.488L29.572 12.908H34.22H34.206Z" fill="#81B64C"/>
</g>
<defs>
<clipPath id="clip0_119_7663">
<rect width="48" height="48" fill="white"/>
</clipPath>
</defs>
</svg>
