<svg width="48" height="48" viewBox="0 0 48 48" fill="none" xmlns="http://www.w3.org/2000/svg">
<g clip-path="url(#clip0_119_7670)">
<path d="M42.304 2H5.696C3.65476 2 2 3.65476 2 5.696V42.304C2 44.3452 3.65476 46 5.696 46H42.304C44.3452 46 46 44.3452 46 42.304V5.696C46 3.65476 44.3452 2 42.304 2Z" fill="#4A4743"/>
<path d="M35.7333 4.93333H42.436C42.8467 4.93333 43.1987 5.27067 43.1987 5.696V42.3187C43.1987 42.744 42.8613 43.0813 42.436 43.0813H12.2667L35.7333 4.93333Z" fill="white"/>
<path d="M15.948 8.61467V24.704H12.956V11.1227H9.55334V8.61467H15.948Z" fill="white"/>
<path d="M38.4467 36.892V39.3853H26.7574V37.42L33.064 31.436C33.768 30.7613 34.252 30.16 34.5014 29.6613C34.7507 29.1627 34.868 28.6493 34.868 28.1507C34.868 27.4173 34.6187 26.8453 34.12 26.4493C33.6214 26.0533 32.888 25.8627 31.92 25.8627C30.3067 25.8627 29.06 26.42 28.2094 27.52L26.1414 25.936C26.7574 25.1 27.5934 24.4547 28.6494 24C29.7054 23.5453 30.8787 23.3107 32.1694 23.3107C33.8854 23.3107 35.264 23.7213 36.2907 24.528C37.3174 25.3493 37.8307 26.4493 37.8307 27.8573C37.8307 28.7227 37.6547 29.5293 37.288 30.2773C36.9214 31.04 36.232 31.8907 35.2054 32.8587L30.9667 36.892H38.4467Z" fill="#4A4743"/>
</g>
<defs>
<clipPath id="clip0_119_7670">
<rect width="48" height="48" fill="white"/>
</clipPath>
</defs>
</svg>
