<svg width="48" height="48" viewBox="0 0 48 48" fill="none" xmlns="http://www.w3.org/2000/svg">
<path d="M22.2213 22.55L6.62733 36.3193C6.62733 36.3193 6.58133 36.3653 6.566 36.3807C5.53867 37.408 4.83333 38.6653 4.57267 39.892C4.43467 40.5513 4.41933 41.1953 4.55733 41.778C4.69533 42.4527 5.01733 43.0507 5.47733 43.4953L6.50467 44.5227C6.52 44.538 6.53533 44.5533 6.55067 44.5687C8.25267 46.1787 11.3347 45.6727 13.6193 43.3727C13.6347 43.3573 13.6653 43.3267 13.6807 43.3113L27.174 27.8553C25.1347 26.9967 23.4327 25.3867 22.2367 22.5347L22.2213 22.55Z" fill="#807B76"/>
<path d="M22.8193 23.8227L7.51667 37.3313C6.64267 38.2053 6.09067 39.2327 5.89134 40.168C5.79934 40.6433 5.78401 41.088 5.86067 41.4867C5.95267 41.8853 6.12134 42.2533 6.41267 42.5293L7.44001 43.5567C8.57467 44.676 10.9053 44.17 12.638 42.422L25.9167 27.2113C24.7207 26.46 23.678 25.3713 22.8193 23.8227Z" fill="#B3ACA8"/>
<path d="M7.53199 37.3467C6.65799 38.2207 6.10599 39.248 5.90666 40.1833C5.81466 40.6587 5.79933 41.1033 5.87599 41.502C5.87599 41.502 5.87599 41.502 5.87599 41.5173C5.87599 41.2413 5.82999 40.9653 5.87599 40.674C6.07533 39.7387 6.62733 38.7113 7.50133 37.8373L22.988 24.1447C22.9267 24.0373 22.85 23.93 22.7887 23.8227L7.48599 37.3313L7.53199 37.3467Z" fill="#E8E6E1"/>
<path d="M2.21136 10.2833L2.04269 10.452C1.47536 11.0193 1.42936 12.0773 1.93536 12.89L3.05469 14.6073C3.42269 15.5273 3.42269 16.4473 3.30002 17.7967C3.16202 19.2993 3.57603 20.2193 3.83669 20.8327L3.88269 20.9553C4.17403 21.6147 4.45003 22.1667 4.69536 22.6573C5.29336 23.838 5.75336 24.7733 6.09069 26.5673L7.07203 32.348C7.25603 34.0193 8.62069 35.2307 10.2 35.108C11.81 34.9853 14.4627 33.4367 15.1834 32.716C15.3214 32.578 15.5207 32.348 15.5207 32.0567C15.5207 31.4127 15.4134 30.8453 15.2907 30.2933C15.03 29.082 14.8307 28.1927 16.0574 26.966C17.8514 25.1567 17.7747 21.9673 17.744 20.434V20.4033L17.6674 19.4373C18.4494 19.6213 19.584 20.0507 20.1667 21.1087C20.412 21.5533 20.5807 22.0287 20.688 22.5653C20.8874 23.608 20.8107 24.7733 20.688 25.8773V25.954C20.3814 28.76 19.8907 33.3907 22.3747 36.7487C20.3814 40.2447 22.298 42.1613 24.506 44.354L24.8434 44.6913L25.2574 45.1053L25.6714 44.6913L45.7887 24.574L46.2027 24.16L45.7887 23.746L45.4514 23.4087C43.2587 21.2007 41.342 19.284 37.846 21.2773C37.6007 20.8633 37.294 20.3267 36.972 19.7287C35.6074 17.2753 33.7367 13.9327 32.0347 12.2153C28.002 8.18267 23.3407 6.06667 18.5567 6.11267C14.6007 6.14334 10.7214 7.63067 7.59336 10.2987H2.45669H2.21136V10.2833Z" fill="#E8E6E1"/>
<path d="M31.2373 29.9867C40.1153 21.1087 42.0167 21.17 42.0167 21.17L42.1393 21.0473C39.64 19.3453 34.764 23.7613 34.764 23.7613L25.058 33.4673C25.058 33.4673 20.412 38.4507 22.298 40.8887L22.4207 40.766C22.4207 40.766 22.3593 38.8647 31.2373 29.9867Z" fill="white"/>
<path d="M5.61532 15.1133C6.24399 12.4147 2.44132 10.866 2.44132 10.866C1.98132 11.326 1.81266 12.0313 2.24199 12.7213L3.36132 14.454C3.77532 15.4353 3.77532 16.4013 3.63732 17.812C3.49932 19.2227 3.88265 20.0813 4.15865 20.6947L4.20465 20.8173C4.49599 21.4613 4.75665 21.998 5.00199 22.504C5.59999 23.7153 6.07532 24.666 6.41265 26.4907L7.39399 32.2713C7.39399 32.2713 7.39399 32.394 7.39399 32.4553C7.42465 34.0347 8.78932 34.2493 8.78932 34.2493C8.78932 34.2493 7.86932 25.494 7.70065 24.298C7.39399 22.136 4.37332 20.2807 5.58465 15.1133H5.61532Z" fill="white"/>
<path d="M7.82332 16.846C7.19465 18.364 8.74332 20.5107 8.74332 20.5107C8.88132 18.548 10.43 19.0847 10.6446 17.214C10.8286 15.65 8.45198 15.3587 7.82332 16.846Z" fill="#666564"/>
<path d="M16.1493 15.236C16.502 16.3247 17.0233 18.7167 17.0233 18.7167C17.0233 18.7167 17.2226 19.1153 17.514 19.652C17.514 19.652 17.8973 19.1767 19.3386 20.4647C19.722 20.802 21.1326 21.8753 20.826 21.124C19.9213 18.962 18.5106 16.662 17.8666 16.0487C17.2226 15.4353 15.7966 14.1627 16.1493 15.2513V15.236Z" fill="#B3ACA8"/>
<path d="M7.77734 10.866C7.77734 10.866 17.238 3.506 25.288 11.556C30.67 16.938 28.6 22.0287 31.2833 26.598C31.2833 26.598 35.3007 22.642 37.892 21.7067C37.892 21.7067 34.6567 14.6993 31.6207 11.6633C28.508 8.55066 16.7013 1.46666 7.77734 10.866Z" fill="#B3ACA8"/>
<path d="M16.4407 25.724C13.6347 26.6747 12.0707 26.0613 13.512 28.944C14.9073 31.75 14.202 33.1607 15.1373 32.67C16.0727 32.1793 14.57 28.9133 15.168 28.254C15.7507 27.5947 17.4833 25.356 16.4407 25.724Z" fill="#B3ACA8"/>
<path d="M18.664 6.67999C22.804 6.67999 27.312 8.33599 31.59 12.614C33.89 14.914 36.6347 20.5567 37.6313 22.0747C38.7813 21.3233 39.7167 21.0167 40.56 21.0167C42.354 21.0167 43.642 22.4427 45.3593 24.16L25.242 44.2773C22.7733 41.8087 20.8873 40.1987 23.0647 36.7027C20.4427 33.4827 20.964 28.6987 21.2553 25.9387C21.3933 24.6507 21.4393 23.516 21.2553 22.458C21.148 21.8753 20.964 21.3387 20.6727 20.8173C19.7373 19.1307 17.7133 18.7933 17.0387 18.732L17.1613 20.434C17.2073 22.0593 17.238 24.942 15.6433 26.5367C13.5887 28.622 14.984 30.1247 14.9533 32.026C14.9533 32.4707 11.7947 34.372 10.154 34.51C10.0927 34.51 10.0313 34.51 9.98533 34.51C8.82 34.51 7.79266 33.5747 7.65466 32.256L6.67333 26.4447C6.18266 23.8073 5.40066 22.918 4.43466 20.71C4.15866 20.0967 3.74466 19.2687 3.88266 17.8427C4.02066 16.4013 4.02066 15.3893 3.576 14.3313L2.426 12.5833C2.08866 12.0313 2.07333 11.2493 2.45666 10.866H7.77733C10.5833 8.41266 14.432 6.66466 18.664 6.66466M18.664 5.49933C14.5853 5.49933 10.5833 6.98666 7.348 9.68533H2.45666H1.98133L1.644 10.0227C0.892663 10.774 0.800663 12.1387 1.46 13.1813L2.54866 14.8527C2.85533 15.65 2.85533 16.4473 2.73266 17.72C2.57933 19.3607 3.024 20.388 3.31533 21.0473C3.65266 21.8293 3.92866 22.3813 4.18933 22.8873C4.78733 24.068 5.21666 24.9267 5.52333 26.644L6.50466 32.4247C6.68866 34.234 8.19133 35.66 9.98533 35.66C10.0773 35.66 10.1693 35.66 10.2613 35.66C11.5647 35.5527 16.1033 33.6667 16.1187 32.0413C16.1187 31.336 15.996 30.7073 15.8733 30.14C15.6127 28.99 15.4747 28.3613 16.4867 27.3493C18.4493 25.3713 18.3727 22.0133 18.342 20.388V20.2193C18.8327 20.434 19.354 20.7867 19.676 21.354C19.8907 21.7373 20.044 22.1667 20.1207 22.642C20.3047 23.608 20.228 24.7273 20.1207 25.7853C19.814 28.668 19.3387 33.2527 21.7 36.7487C19.7987 40.4287 21.9913 42.6213 24.1073 44.722L24.4447 45.0593L25.2727 45.8873L26.1007 45.0593L46.218 24.942L47.046 24.114L46.218 23.286L45.8807 22.9487C44.2707 21.3233 42.7527 19.8053 40.5907 19.8053C39.7933 19.8053 38.9653 20.02 38.076 20.4493C37.892 20.1427 37.6927 19.7747 37.478 19.3913C36.098 16.9073 34.212 13.5187 32.4487 11.7553C28.3393 7.64599 23.586 5.48399 18.71 5.48399L18.664 5.49933Z" fill="#4A4743"/>
<path d="M29.9187 28.8213C32.3413 26.3987 34.6107 24.344 36.7267 22.7033C37.1713 22.3507 37.6007 22.0747 37.984 21.8293L37.3093 20.8787C36.8953 21.124 36.466 21.4307 36.006 21.7833C33.936 23.3933 31.6667 25.4327 29.0907 28.0087C26.5147 30.5847 24.4753 32.854 22.8653 34.924C22.4973 35.3993 22.1907 35.8593 21.93 36.2887L22.9113 36.9173C23.1413 36.5187 23.4327 36.0893 23.8007 35.6293C25.4413 33.5133 27.496 31.244 29.9187 28.8213Z" fill="#4A4743"/>
<path d="M45.574 9.91533C45.574 9.91533 45.5893 9.946 45.6046 9.96133C45.6046 9.96133 45.6353 9.97666 45.6506 9.992L45.574 9.91533Z" fill="#312E2B"/>
<path d="M39.1647 3.552L39.18 3.56734L39.1953 3.58267L39.1647 3.552Z" fill="#312E2B"/>
<path d="M33.4147 23.9913C34.5033 23.8687 35.546 23.3627 36.3587 22.5347L45.574 12.7367C46.3407 11.97 46.3407 10.7433 45.6047 9.96134C45.2367 9.60867 44.7613 9.40934 44.24 9.40934C44.1787 9.40934 44.1327 9.40934 44.0713 9.40934C44.1173 8.84201 43.918 8.25934 43.4887 7.83001C43.1053 7.44667 42.6147 7.24734 42.078 7.24734C42.0167 7.24734 41.9707 7.24734 41.9093 7.24734C41.9093 7.18601 41.9093 7.14001 41.9093 7.07867C41.9093 6.54201 41.6947 6.05134 41.3113 5.66801C40.928 5.28467 40.4373 5.08534 39.9007 5.08534C39.8393 5.08534 39.7933 5.08534 39.732 5.08534C39.778 4.53334 39.5787 3.95067 39.1647 3.52134C38.3827 2.75467 37.1253 2.77001 36.3587 3.53667L26.6833 12.8747C26.0547 13.5033 25.6253 14.3007 25.4107 15.236V15.2973C25.3493 15.42 25.288 15.5887 25.2573 15.8033L24.46 20.0353L23.034 20.894C24.23 23.746 25.932 25.356 27.9713 26.2147L29.2133 24.758L33.43 23.93L33.4147 23.9913Z" fill="#807B76"/>
<path d="M29.3666 23.3933L33.2153 22.642C33.9973 22.5653 34.7793 22.182 35.3926 21.584L44.7 11.878C44.9453 11.6327 44.9453 11.2187 44.7 10.9733C44.4546 10.728 44.0406 10.728 43.7953 10.9733C43.3046 11.4793 42.5686 12.2153 42.492 12.292C39.5173 15.282 35.27 19.2227 34.81 18.7627C34.35 18.3027 38.2293 14.0553 41.204 11.0807L42.5533 9.73133C42.7986 9.486 42.7986 9.072 42.5533 8.82667C42.308 8.58133 41.894 8.58133 41.6486 8.82667C41.1426 9.33267 40.376 10.1147 40.3453 10.1453C37.3706 13.1353 33.1233 17.076 32.6633 16.616C32.2033 16.156 36.1286 11.878 39.088 8.888C39.134 8.842 39.8853 8.07533 40.3913 7.56933C40.6366 7.324 40.6366 6.91 40.3913 6.66467C40.146 6.41933 39.732 6.41933 39.4866 6.66467C38.996 7.15533 38.2753 7.876 38.1833 7.98333C35.2086 10.9733 30.9613 14.914 30.5013 14.454C30.0413 13.994 33.9206 9.74667 36.8953 6.772L38.2446 5.40733C38.49 5.162 38.49 4.76333 38.2446 4.518C37.9993 4.27267 37.6006 4.27267 37.3553 4.518L27.6953 13.8713C27.2046 14.362 26.9133 14.9753 26.7753 15.604C26.7446 15.7573 26.668 15.8953 26.6526 16.0487L25.9013 19.9893L25.8706 20.1273L25.748 20.7713L24.644 21.3387C25.5026 22.8873 26.5453 23.976 27.7413 24.7273L28.5233 23.5313L29.3973 23.3627L29.3666 23.3933Z" fill="#B3ACA8"/>
<path d="M32.7553 16.6007C32.6326 16.846 32.5713 17.03 32.6326 17.1067C33.0926 17.5667 37.3553 13.626 40.3146 10.636C40.3453 10.6053 41.112 9.82333 41.618 9.31733C41.8633 9.072 42.2773 9.072 42.5226 9.31733C42.584 9.37867 42.5686 9.45533 42.5993 9.51667C42.7066 9.28667 42.7066 9.01067 42.5073 8.81133C42.262 8.566 41.848 8.566 41.6026 8.81133C41.0966 9.31733 40.33 10.0993 40.2993 10.13C37.4626 12.982 33.476 16.6773 32.74 16.6007H32.7553Z" fill="#E8E6E1"/>
<path d="M34.9174 18.7473C34.7947 18.9927 34.7334 19.1767 34.7947 19.2533C35.2547 19.7133 39.5174 15.7727 42.4767 12.7827C42.5534 12.706 43.2894 11.97 43.78 11.464C44.0254 11.2187 44.424 11.2187 44.6847 11.464C44.746 11.5253 44.7307 11.602 44.7614 11.6633C44.8687 11.4333 44.8687 11.1573 44.6694 10.958C44.424 10.7127 44.01 10.7127 43.7647 10.958C43.274 11.464 42.538 12.2 42.4614 12.2767C39.6247 15.1287 35.6534 18.824 34.902 18.7473H34.9174Z" fill="#E8E6E1"/>
<path d="M30.5933 14.454C30.4707 14.6993 30.4093 14.8833 30.4707 14.96C30.9307 15.42 35.1933 11.4793 38.1527 8.48933C38.26 8.382 38.9807 7.66133 39.456 7.17067C39.7013 6.92533 40.1 6.92533 40.3607 7.17067C40.3607 7.17067 40.4067 7.30867 40.4373 7.37C40.5447 7.14 40.5447 6.864 40.3453 6.66467C40.1 6.41933 39.686 6.41933 39.4407 6.66467C38.95 7.15533 38.2293 7.876 38.1373 7.98333C35.3007 10.8353 31.314 14.5307 30.578 14.454H30.5933Z" fill="#E8E6E1"/>
<path d="M25.8247 20.6487L25.8554 20.5107L26.6067 16.57C26.6067 16.4167 26.6987 16.2787 26.7294 16.1253C26.8827 15.4967 27.1587 14.8833 27.6494 14.3927L37.3094 5.03934C37.5547 4.794 37.9534 4.794 38.1987 5.03934C38.2447 5.10067 38.2447 5.162 38.2754 5.23867C38.3827 5.00867 38.3827 4.73267 38.1987 4.54867C37.9534 4.30334 37.5547 4.30334 37.3094 4.54867L27.6494 13.902C27.1587 14.3927 26.8674 15.006 26.7294 15.6347C26.6987 15.788 26.622 15.926 26.6067 16.0793L25.8554 20.02L25.8247 20.158L25.702 20.802L24.598 21.3693C24.6594 21.492 24.736 21.584 24.7974 21.6913L25.702 21.308L25.8247 20.664V20.6487Z" fill="#E8E6E1"/>
<path d="M29.1673 23.424L29.3513 23.3933L33.2 22.642C33.2 22.642 33.2307 22.642 33.246 22.642C32.8473 21.308 31.9733 19.8513 30.6853 18.5787C29.3973 17.2907 27.9407 16.432 26.5913 16.0487V16.0793L25.84 20.02L25.8093 20.158L25.6867 20.802L24.7513 21.6453C26.4227 21.6453 27.9253 22.1667 29.0293 23.2553C29.0907 23.3167 29.106 23.378 29.1673 23.4393V23.424Z" fill="#D1CCC5"/>
</svg>
