<svg width="48" height="48" viewBox="0 0 48 48" fill="none" xmlns="http://www.w3.org/2000/svg">
<g clip-path="url(#clip0_119_7650)">
<path d="M25.9758 41.1285C25.3838 41.1285 24.777 40.9953 24.1554 40.7289C23.9334 40.6549 23.6818 40.4773 23.3562 40.1961L22.8086 39.7373C22.8086 39.7373 7.94955 29.555 7.25395 28.8002C6.57316 28.0454 6.06996 26.2398 5.78877 25.8846C5.30037 25.2778 4.41238 24.4786 3.28759 23.6646C2.2812 22.9246 2.1036 22.2735 2.0148 21.7111C1.926 21.0599 2.1924 20.1275 2.2664 19.8611L5.50757 10.5964C5.64077 10.2708 5.95156 9.60477 6.60276 9.21997C6.89876 9.02758 7.34275 8.86478 7.86075 8.86478C8.28994 8.86478 8.71914 8.96838 9.13354 9.19037C10.1251 9.69357 11.4719 10.3744 12.3895 10.8036L13.4255 11.292L24.6586 15.3471L24.925 15.4951C26.5382 16.3683 29.5426 17.9667 31.5997 18.9287C32.8281 19.4911 34.9445 21.0747 37.3717 22.9394C39.2217 24.3454 40.2133 25.1002 40.82 25.3962L40.9533 25.4554L41.0568 25.5442C43.0548 27.2462 43.4248 29.0074 42.1668 30.7834C41.7228 31.405 40.8792 32.145 39.3253 32.145C39.2365 32.145 39.1477 32.145 39.0737 32.145C39.0737 32.8554 38.8369 33.6398 38.1561 34.2909C37.3421 35.0901 36.3061 35.5193 35.1517 35.5193C34.7521 35.5193 34.3673 35.4601 34.0121 35.3861C33.9529 36.0373 33.7309 36.7773 33.1685 37.3693C32.3989 38.1537 31.1113 38.6717 29.8829 38.6717C29.7202 38.6717 29.5574 38.6717 29.4094 38.6421C29.291 38.9973 29.1134 39.3229 28.8914 39.6485C28.2106 40.5809 27.145 41.1137 25.9758 41.1137V41.1285Z" fill="#8D694B"/>
<path d="M31.7625 19.1655C32.0437 19.2691 32.3841 19.4171 32.7541 19.5947C32.3101 19.3135 31.9253 19.0915 31.5997 18.9435C29.5426 17.9815 26.5382 16.3831 24.925 15.5099L24.6586 15.3619L14.2839 11.6028C13.9583 11.8692 13.6179 12.1799 13.2775 12.5499C12.8187 13.0531 12.1527 14.1039 11.7827 17.5079C11.6051 19.1803 11.5903 20.6751 11.5903 20.7343L11.5311 21.4447L11.9159 21.8591C12.3303 22.3179 13.0555 22.5103 14.0323 22.4215C14.6983 22.3623 15.3939 22.1699 15.9119 21.9035C17.4511 21.1191 18.3095 18.9583 18.8867 17.5227C19.0051 17.2415 19.0791 17.0343 19.1531 16.8715C20.2778 16.7383 23.4302 16.3683 24.5254 16.2499C25.5318 16.6791 29.3354 18.2923 31.7329 19.1507L31.7625 19.1655Z" fill="#6B4D3A"/>
<path d="M37.2237 22.8951C35.2553 21.3855 32.8429 19.7279 31.5405 19.1063C29.2317 18.0407 25.591 16.0723 24.629 15.5543C23.519 15.5691 20.3518 15.6283 19.227 15.6727C19.1382 15.8207 19.0346 16.0279 18.9014 16.2943C18.191 17.6707 17.1403 19.7427 15.5271 20.3791C14.9795 20.6011 14.2839 20.7195 13.6031 20.7195C12.6115 20.7195 11.9159 20.4679 11.5459 19.9647L11.2055 19.5059L11.3239 18.7955C11.3239 18.7955 11.4719 17.2711 11.8123 15.5839C12.4931 12.2244 13.2479 11.2328 13.7511 10.774C15.4383 9.27918 16.7851 8.83518 19.005 8.46518C19.597 8.36159 20.3814 8.16919 21.2102 7.96199C23.149 7.47359 25.1322 6.9704 26.4938 6.9704C26.8786 6.9704 27.2042 7.0148 27.4854 7.0888C28.6841 7.44399 31.3925 8.19879 33.0205 8.50958C33.9085 8.68718 34.8113 9.07198 35.6253 9.42718C36.1729 9.66397 36.8537 9.95997 37.1349 9.98957C37.4753 9.95997 38.7037 9.36798 39.3697 9.05718C39.7396 8.87958 40.0504 8.80558 40.376 8.80558C40.8348 8.80558 41.2788 8.95358 41.6932 9.23478C42.4628 9.75277 42.7144 10.5816 42.744 10.7444L45.8224 20.3051C45.8224 20.3051 46.0592 21.0599 45.9704 21.6963C45.8964 22.1995 45.704 22.8507 44.7864 23.4574C42.6404 24.8634 42.2704 25.2482 42.2408 25.2778L41.3972 25.8254C41.3972 25.8254 39.6065 24.6858 37.2089 22.8507L37.2237 22.8951Z" fill="#E3C29C"/>
<path d="M19.967 41.3209C19.2566 41.3209 18.6202 41.1285 18.0874 40.7881C17.6434 40.4921 17.2735 40.1073 17.0071 39.6781C16.6519 39.7669 16.2967 39.8261 15.9563 39.8261C15.3199 39.8261 14.7427 39.6485 14.2987 39.3229C13.4995 38.7457 12.9371 37.9761 12.6855 37.1621C12.6263 37.1621 12.5819 37.1621 12.5227 37.1621C12.0787 37.1621 11.6643 37.0733 11.2795 36.9105C10.3027 36.4813 9.63672 35.5341 9.44432 34.5129H9.38512C9.22232 34.5129 9.05953 34.4833 8.88193 34.4537C8.08273 34.2909 7.37234 33.8026 6.89875 33.0774C6.33635 32.2338 6.14395 31.1386 6.35115 30.1618C6.67675 28.667 8.08273 27.1278 9.85872 27.1278C10.0511 27.1278 10.2287 27.1426 10.4211 27.187C11.5311 27.409 12.3303 28.1934 12.7299 29.1554C13.0703 29.0666 13.4255 29.0222 13.7807 29.0222C14.3727 29.0222 14.9351 29.1554 15.4087 29.4366C16.0303 29.777 16.4743 30.3542 16.6963 31.0498C16.9331 31.0054 17.1699 30.9758 17.4066 30.9758C18.1466 30.9758 18.8422 31.2274 19.4046 31.701C20.2186 32.367 20.5886 33.403 20.4998 34.6313C21.1806 34.7497 21.8318 35.0309 22.2758 35.4305C23.8446 36.8513 23.4006 38.6125 23.2378 39.2637C22.8974 40.6105 21.299 41.3505 19.9374 41.3505L19.967 41.3209Z" fill="#D5A47D"/>
<path d="M23.445 37.9465C23.445 37.1769 23.223 36.2297 22.3054 35.4009C21.8614 35.0013 21.225 34.7202 20.5294 34.6018C20.6182 33.3734 20.2482 32.3374 19.4342 31.6714C18.8571 31.1978 18.1615 30.9462 17.4363 30.9462C17.1995 30.9462 16.9479 30.9758 16.7259 31.0202C16.4891 30.3246 16.0599 29.7474 15.4383 29.407C14.9647 29.1406 14.4023 28.9926 13.8103 28.9926C13.4551 28.9926 13.0999 29.037 12.7595 29.1258C12.3599 28.1786 11.5607 27.3794 10.4507 27.1574C10.2583 27.113 10.0807 27.0982 9.88833 27.0982C9.20754 27.0982 8.58595 27.3202 8.05315 27.6902C7.99395 28.519 7.01716 30.369 8.39355 31.8194C9.76993 33.2698 10.9835 31.5234 11.1463 31.5382H11.2055C10.7911 32.4262 10.0807 33.5806 11.4571 34.809C12.8039 35.9929 14.3875 34.2022 14.4319 34.2022C14.2099 35.0309 13.7511 36.6737 15.3347 37.7689C16.9331 38.8493 18.4131 36.8217 18.7683 36.7329C19.0346 37.1621 18.3983 38.7753 20.189 39.7965C21.9798 40.8029 23.2526 38.8937 23.4598 37.9465H23.445Z" fill="#E3C29C"/>
<path d="M38.0969 18.2775C32.4729 18.8991 27.959 14.6811 25.9314 14.6071C23.9038 14.5331 19.1974 15.6875 19.1974 15.6875C20.3222 15.6579 23.4894 15.5839 24.5994 15.5691C25.5614 16.0871 29.2022 18.0407 31.5109 19.1211C32.8133 19.7279 35.2257 21.4003 37.1941 22.9099C37.1941 22.9099 41.6044 17.8927 38.0673 18.2923L38.0969 18.2775Z" fill="#D5A47D"/>
<path d="M39.2809 24.4194C40.5684 25.337 41.3972 25.8698 41.3972 25.8698L42.2408 25.3222C42.2408 25.3222 42.6404 24.9078 44.7864 23.5019C44.9344 23.3983 45.038 23.2947 45.1564 23.1911C43.5284 23.6647 39.2809 24.4194 39.2809 24.4194Z" fill="#D5A47D"/>
</g>
<defs>
<clipPath id="clip0_119_7650">
<rect width="48" height="48" fill="white"/>
</clipPath>
</defs>
</svg>
