<svg width="48" height="48" viewBox="0 0 48 48" fill="none" xmlns="http://www.w3.org/2000/svg">
<g clip-path="url(#clip0_119_7648)">
<path d="M27.1873 5.15533H21.6367V9.43333H27.1873V5.15533Z" fill="#5D9948"/>
<path d="M28.4447 1H20.364C18.9159 1 17.742 2.17391 17.742 3.622C17.742 5.07009 18.9159 6.244 20.364 6.244H28.4447C29.8928 6.244 31.0667 5.07009 31.0667 3.622C31.0667 2.17391 29.8928 1 28.4447 1Z" fill="#81B64C"/>
<path d="M24.412 47C35.133 47 43.824 38.3089 43.824 27.588C43.824 16.867 35.133 8.17599 24.412 8.17599C13.691 8.17599 5 16.867 5 27.588C5 38.3089 13.691 47 24.412 47Z" fill="#5D9948"/>
<path d="M35.4367 11.626C32.3087 9.464 28.506 8.19133 24.412 8.19133C13.694 8.176 5 16.87 5 27.588C5 32.188 6.59467 36.4047 9.26267 39.732C23.5073 37.938 34.6393 26.1467 35.4367 11.626Z" fill="#81B64C"/>
<path d="M24.412 41.2653C31.9658 41.2653 38.0893 35.1418 38.0893 27.588C38.0893 20.0342 31.9658 13.9107 24.412 13.9107C16.8582 13.9107 10.7347 20.0342 10.7347 27.588C10.7347 35.1418 16.8582 41.2653 24.412 41.2653Z" fill="#E8E6E1"/>
<path d="M34.3327 18.1887C31.8334 15.5513 28.3067 13.9107 24.3967 13.9107C16.8374 13.9107 10.7194 20.0287 10.7194 27.588C10.7194 31.8507 12.6667 35.6533 15.718 38.168C24.7034 34.902 31.68 27.45 34.3327 18.1887Z" fill="white"/>
<path d="M27.5707 26.898L24.734 18.6793C24.7187 18.48 24.5653 18.388 24.412 18.388C24.2587 18.388 24.1053 18.48 24.09 18.6793L21.2533 26.898C21.146 27.22 21.0847 27.5727 21.0847 27.9407C21.0847 29.7807 22.572 31.268 24.412 31.268C26.252 31.268 27.7393 29.7807 27.7393 27.9407C27.7393 27.5727 27.678 27.22 27.5707 26.898Z" fill="#5D9948"/>
<path d="M24.412 18.388C24.2587 18.388 24.1053 18.48 24.09 18.6793L21.2533 26.898C21.146 27.22 21.0847 27.5727 21.0847 27.9407C21.0847 29.7807 22.572 31.268 24.412 31.268V18.3727V18.388Z" fill="#81B64C"/>
<path d="M24.412 13.2513C16.5 13.2513 10.0753 19.676 10.0753 27.588C10.0753 35.5 16.5 41.9247 24.412 41.9247C32.324 41.9247 38.7487 35.5 38.7487 27.588C38.7487 19.676 32.324 13.2513 24.412 13.2513ZM24.412 40.882C17.0673 40.882 11.118 34.9327 11.118 27.588C11.118 20.2433 17.0673 14.294 24.412 14.294C31.7567 14.294 37.706 20.2433 37.706 27.588C37.706 34.9327 31.7567 40.882 24.412 40.882Z" fill="#45753C"/>
</g>
<defs>
<clipPath id="clip0_119_7648">
<rect width="48" height="48" fill="white"/>
</clipPath>
</defs>
</svg>
