<svg width="48" height="48" viewBox="0 0 48 48" fill="none" xmlns="http://www.w3.org/2000/svg">
<g clip-path="url(#clip0_119_7669)">
<path opacity="0.5" d="M2 42.1187C2 43.1307 10.3893 43.9667 20.744 43.9667C31.0987 43.9667 39.488 43.1453 39.488 42.1187C39.488 41.092 31.0987 40.2853 20.744 40.2853C10.3893 40.2853 2 41.1067 2 42.1187Z" fill="#252321"/>
<path d="M35.9093 37.4693C37.156 35.5333 37.552 33.1427 37.0093 30.7373C36.3053 27.6133 34.9267 25.7507 33.9587 24.7827L37.2293 23.228L37.9333 26.3667L42.7587 25.2813L42.04 22.0547L45.2667 21.336L44.1813 16.5107L40.9547 17.2293L40.236 14.0173L35.4107 15.1027L36.1147 18.2413H32.492C32.9467 16.936 33.4013 14.6627 32.6973 11.5387C32.1547 9.11867 30.776 7.124 28.8253 5.92133C26.86 4.704 24.3813 4.352 21.8733 4.924C18.2213 5.74533 16.4173 8.60533 14.672 11.3627C13.6013 13.064 12.5013 14.8093 10.9467 16.1293C9.15732 12.5947 6.61999 13.1667 3.71599 13.8267L3.29065 13.9293L2.74799 14.0467L2.86532 14.5893L8.74665 40.7693L8.86399 41.312L9.39198 41.1947L9.83199 41.092C12.736 40.4467 15.2733 39.8893 15.376 35.9293C17.3413 36.472 19.0867 37.572 20.7733 38.6573C23.5307 40.4027 26.376 42.2213 30.028 41.3853C32.5507 40.828 34.6333 39.4493 35.88 37.5133L35.9093 37.4693ZM27.3147 33.5827C25.54 33.7293 23.4427 31.5147 20.8907 30.2973C20.7587 29.432 20.6853 28.8893 20.5387 28.156L27.2267 26.66C27.2267 26.66 29.2507 28.4493 29.632 30.1947C29.632 30.1947 30.2187 33.3627 27.3147 33.5973V33.5827ZM26.2587 15.2053C26.6547 16.936 25.5987 19.4293 25.5987 19.4293L18.9107 20.9253C18.72 20.2067 18.5587 19.6933 18.3093 18.8427C20.0987 16.6427 21.052 13.7533 22.7093 13.1227C25.4373 12.096 26.2587 15.2053 26.2587 15.2053Z" fill="#4A4743"/>
<path d="M24.9387 38.628L15.156 32.4533L15.3907 35.8853C15.3907 35.8853 18.1773 36.78 21.3307 38.848C24.4693 40.916 26.552 42.1187 30.7467 41.18C33.8267 40.476 34.8533 38.628 35.66 36.9853C35.66 36.9853 29.9547 41.796 24.9533 38.628H24.9387Z" fill="#383532"/>
<path d="M28.18 32.8053C28.0333 32.8787 27.872 32.9227 27.7106 32.9667C26.8453 33.1573 25.6133 32.424 24.044 31.4853C23.2666 31.0307 22.416 30.5173 21.448 30.004C21.3893 29.652 21.316 29.1973 21.2426 28.772L27.168 27.4373C28.7373 28.684 29.2213 30.2387 29.148 31.2507C29.104 31.764 28.9133 32.4533 28.18 32.8053ZM28.6933 33.8613C31.2453 32.6293 30.82 28.4787 27.432 26.176L19.8933 27.8627C20.0106 28.5373 20.392 30.7813 20.392 30.7813C23.9413 32.5267 26.0093 34.5507 27.9746 34.1107C28.2386 34.052 28.4733 33.964 28.6933 33.8613Z" fill="#383532"/>
<path d="M44.1666 16.496L40.94 17.2147L40.2213 14.0027L35.968 14.956L36.7747 18.7253C38.5493 18.3 42.1573 18.1827 44.592 20.9107C44.7533 21.1013 44.9146 21.248 45.0906 21.3653L45.252 21.336L44.1666 16.5107V16.496ZM28.8107 5.89201C26.8453 4.67467 24.3667 4.32267 21.8587 4.89467C18.2067 5.71601 16.4027 8.57601 14.6573 11.3333C13.6893 12.8733 12.6773 14.428 11.3427 15.704L12.3987 18.3293C15.6987 15.9533 18.676 14.692 21.3307 14.2667C21.7413 13.7387 22.1813 13.3133 22.6947 13.1227C24.4693 12.448 25.4373 13.5333 25.892 14.384C28.4147 14.9707 30.5413 16.3933 32.228 18.344L32.7706 17.112C33.064 15.7773 33.196 13.9 32.668 11.5387C32.1253 9.11867 30.7467 7.124 28.796 5.92134L28.8107 5.89201ZM10.9467 16.1C9.15732 12.5653 6.61999 13.1373 3.71599 13.7973L3.29065 13.9L2.74799 14.0173L2.86532 14.56L3.73065 18.4027C4.05332 18.3587 4.27332 18.3147 4.27332 18.3147C4.27332 18.3147 10.7707 17.2 13.176 24.5773L11.2253 15.8067C11.1227 15.8947 11.0347 16.012 10.932 16.1H10.9467Z" fill="#807B76"/>
<path d="M32.0813 40.0798C31.4213 40.3878 30.7027 40.6518 29.9253 40.8132C24.088 42.1185 20.4947 36.3252 14.8333 35.1958C14.936 37.8065 14.1147 38.9652 12.7213 39.6398C11.7973 40.0945 10.6093 40.3292 9.28933 40.6225L3.408 14.4278C6.752 13.6798 9.04 12.9465 10.7413 16.9505C14.9067 13.8705 15.948 8.10649 20.3187 5.99449C20.832 5.74516 21.3747 5.55449 21.976 5.42249C26.9187 4.30782 31.0987 6.96249 32.1547 11.6265C33.0347 15.5425 32.1547 18.6958 32.1547 18.6958H36.7747L36.0413 15.4838L39.796 14.6478L40.5147 17.8745L43.7413 17.1558L44.592 20.9105L41.3653 21.6292L42.084 24.8558L38.3293 25.7065L37.6107 22.4798L33.372 24.4892C33.372 24.4892 35.572 26.9532 36.452 30.8545C37.332 34.7998 35.6013 38.3785 32.0667 40.0798M32.58 41.1358C36.628 39.1852 38.5933 35.0492 37.596 30.6052C37.024 28.0678 35.9533 26.1172 35.1613 24.9438L36.7747 24.1812L37.1707 25.9705L37.4347 27.1145L38.5787 26.8505L42.3333 25.9998L43.4773 25.7358L43.2133 24.5918L42.744 22.5092L44.8267 22.0398L45.9707 21.7758L45.7067 20.6318L44.856 16.8625L44.592 15.7185L43.448 15.9825L41.38 16.4518L40.9107 14.3692L40.6467 13.2252L39.5027 13.4745L35.748 14.3252L34.604 14.5892L34.868 15.7332L35.264 17.5225H33.5333C33.7093 16.1292 33.8267 13.8998 33.2547 11.3625C32.668 8.78116 31.2013 6.65449 29.0893 5.34916C27.0213 4.05849 24.396 3.67716 21.712 4.27849C21.0373 4.42516 20.392 4.65982 19.8053 4.93849C17.136 6.22916 15.6107 8.64916 14.1293 10.9812C13.22 12.4185 12.296 13.8998 11.0933 15.0878C9.09867 11.9198 6.29733 12.5652 3.56933 13.1812L3.144 13.2838L2 13.5478L2.24933 14.6918L8.13067 40.8865L8.39467 42.0305L9.53867 41.7665L9.964 41.6638C11.152 41.3998 12.2813 41.1505 13.22 40.6958C14.8187 39.9332 15.7133 38.6425 15.948 36.7212C17.532 37.2785 19.0133 38.2172 20.4507 39.1412C23.3107 40.9598 26.2733 42.8372 30.1747 41.9572C31.0253 41.7665 31.832 41.4732 32.58 41.1212V41.1358Z" fill="#383532"/>
<path d="M25.2027 18.696L19.2773 20.0307C19.16 19.6053 19.028 19.1653 18.94 18.828C19.6 17.9627 20.1573 17.1267 20.656 16.3787C21.5653 15.0147 22.2987 13.9293 23.0467 13.5773C23.1493 13.5333 23.2373 13.4893 23.34 13.4747C24.1173 13.2987 24.7627 13.5333 25.2173 14.1787C25.8773 15.088 26.1267 16.848 25.2173 18.7107M25.9947 19.7373C28.268 15.8947 26.4053 11.5827 23.0907 12.3307C22.9 12.3747 22.724 12.4333 22.548 12.5213C20.9347 13.2987 19.8933 15.792 17.664 18.5787C17.664 18.5787 18.2947 20.7787 18.4707 21.424L25.9947 19.7373Z" fill="#383532"/>
<path d="M13.3373 25.956C14.056 29.124 14.54 31.9547 14.7747 34.4773C14.8333 35.0053 14.848 35.4893 14.8333 35.9147L15.9333 35.856C15.9333 35.4013 15.9333 34.9027 15.8747 34.36C15.64 31.896 15.156 29.0653 14.408 25.7067C13.6453 22.348 12.8827 19.5907 12.032 17.244C11.8413 16.716 11.636 16.232 11.416 15.8067L10.404 16.2613C10.6093 16.6573 10.8 17.112 10.9907 17.6107C11.856 19.9867 12.6187 22.7733 13.3373 25.9267V25.956Z" fill="#383532"/>
</g>
<defs>
<clipPath id="clip0_119_7669">
<rect width="48" height="48" fill="white"/>
</clipPath>
</defs>
</svg>
