<svg width="48" height="48" viewBox="0 0 48 48" fill="none" xmlns="http://www.w3.org/2000/svg">
<g clip-path="url(#clip0_119_7649)">
<path d="M30.028 2.616C27.564 2.616 25.5547 4.62533 25.5547 7.08933C25.5547 8.39467 26.1853 9.656 27.212 10.4333L23.736 20.48L20.26 10.4333C21.2867 9.656 21.9173 8.39467 21.9173 7.08933C21.9173 4.62533 19.908 2.616 17.444 2.616C14.98 2.616 12.9707 4.58133 12.9707 7.08933C12.9707 8.96667 14.1293 10.58 15.7867 11.1227L15.2293 22.9733L10.4187 17.84C10.712 17.3707 11.108 16.5787 11.108 15.7133C11.108 13.44 9.14268 11.4453 6.89868 11.4453C5.75468 11.4453 4.68401 11.8853 3.87734 12.692C3.07068 13.4987 2.63068 14.5693 2.63068 15.7133C2.63068 17.7227 4.30268 19.644 6.16534 19.8933L13.22 36.8627C8.18934 37.8013 8.20401 40.8227 8.20401 44.2987V44.7973V45.4133H39.268V44.3133C39.268 40.8373 39.2827 37.816 34.252 36.8773L41.3067 19.908C43.184 19.6587 44.856 17.7373 44.856 15.728C44.856 13.3813 42.9347 11.46 40.588 11.46C38.2413 11.46 36.3787 13.4547 36.3787 15.728C36.3787 16.5933 36.7747 17.3853 37.068 17.8547L32.2427 22.988L31.6853 11.1373C33.328 10.5947 34.5013 8.952 34.5013 7.11867C34.5013 4.61067 32.536 2.64533 30.028 2.64533V2.616Z" fill="#E8E6E1"/>
<path d="M7.77872 12.0027C6.31205 12.1347 4.03872 13.792 3.52539 17.1507C3.49605 17.3853 1.85339 15.6253 4.02405 13.1027C5.72539 11.1227 7.79339 11.988 7.79339 11.988L7.77872 12.0027Z" fill="white"/>
<path d="M41.556 12.0027C40.0894 12.1347 37.816 13.792 37.3027 17.1507C37.2587 17.3853 35.6307 15.6253 37.8014 13.1027C39.5174 11.1227 41.5707 11.988 41.5707 11.988L41.556 12.0027Z" fill="white"/>
<path d="M18.2214 3.26133C16.652 3.42267 14.1734 5.344 13.9387 9.216C13.9387 9.216 12.3254 6.95733 14.4667 4.42C16.1534 2.41067 18.2214 3.26133 18.2214 3.26133Z" fill="white"/>
<path d="M30.732 3.26133C29.1627 3.42267 26.684 5.344 26.4494 9.216C26.4494 9.216 24.836 6.95733 26.9774 4.42C28.664 2.41067 30.732 3.26133 30.732 3.26133Z" fill="white"/>
<path d="M23.912 38.6373C37.0827 38.6373 38.4614 40.0893 38.4614 40.0893H38.6374C38.0507 36.98 31.1427 36.628 31.1427 36.628H16.7254C16.7254 36.628 9.58271 36.8773 9.18671 40.0893H9.36271C9.36271 40.0893 10.7267 38.6373 23.912 38.6373Z" fill="white"/>
<path d="M8.45337 12.34C10.0814 14.4227 7.28004 16.256 8.83471 17.9427L15.9334 24.5133L10.6094 17.4587C10.6094 17.4587 11.284 15.728 10.8587 14.4667C9.90537 11.6213 8.43871 12.3253 8.43871 12.3253L8.45337 12.34Z" fill="#B3ACA8"/>
<path d="M31.6854 30.8493C26.8747 36.056 22.0934 35.8947 22.0934 35.8947L34.2521 36.848L41.3801 19.996C41.3801 19.996 43.0374 19.8053 44.2694 17.752C46.1027 14.716 42.5827 12.5307 42.5827 12.5307C43.6827 13.8067 43.5214 15.948 42.5827 16.8133C41.6881 17.6493 40.1774 17.8253 39.6201 19.1013C39.6201 19.1013 36.2761 25.892 31.6854 30.864V30.8493Z" fill="#B3ACA8"/>
<path d="M31.8907 3.46667C34.2227 6.69333 29.7787 7.73467 30.0574 10.6827L31.8174 24.4547V11.284C31.8174 11.284 34.9121 9.42133 34.6334 7.17733C34.2081 3.672 31.9054 3.48133 31.9054 3.48133L31.8907 3.46667Z" fill="#B3ACA8"/>
<path d="M18.3827 10.2427L23.8387 22.372L20.3627 10.5653C20.3627 10.5653 21.6973 8.62933 21.6973 6.94267C21.6973 3.86267 19.116 3.26133 19.116 3.26133C21.6093 6.60533 17.4147 7.324 18.3973 10.2427H18.3827Z" fill="#B3ACA8"/>
<path d="M23.736 36.804C27.344 36.804 30.5414 36.9507 33.328 37.3173C33.9147 37.3907 34.4427 37.4933 34.912 37.6107L35.1174 36.408C34.6334 36.2907 34.076 36.188 33.4894 36.1147C30.7614 35.7627 27.564 35.6013 23.736 35.6013C19.908 35.6013 16.7254 35.7627 13.9827 36.1147C13.352 36.188 12.78 36.3053 12.2814 36.4373L12.5307 37.64C13 37.5227 13.5427 37.42 14.144 37.3467C16.9307 36.9947 20.128 36.8333 23.736 36.8333V36.804Z" fill="#383532"/>
<path d="M30.028 3.21733C32.2134 3.21733 33.8854 4.88933 33.8854 7.07467C33.8854 8.908 32.58 10.36 31.04 10.624L31.7 24.4107L37.8454 17.8547C37.8454 17.8547 36.98 16.8133 36.98 15.6693C36.98 13.6453 38.7547 12.0173 40.588 12.0173C42.612 12.0173 44.24 13.6453 44.24 15.6693C44.24 17.5467 42.568 19.2773 40.896 19.2773L33.4014 37.3027C38.916 38.0213 38.6667 40.764 38.6667 44.7533H8.80538C8.80538 40.764 8.55604 38.0213 14.0707 37.3027L6.57604 19.292C4.90404 19.292 3.23204 17.5613 3.23204 15.684C3.23204 13.66 4.86004 12.032 6.88404 12.032C8.71738 12.032 10.492 13.66 10.492 15.684C10.492 16.8133 9.62671 17.8693 9.62671 17.8693L15.772 24.4253L16.432 10.6387C14.8627 10.36 13.5867 8.908 13.5867 7.08933C13.5867 4.904 15.2587 3.232 17.444 3.232C19.468 3.232 21.3014 4.86 21.3014 7.08933C21.3014 8.36533 20.5827 9.58267 19.5267 10.184L23.736 22.3427L27.9454 10.184C26.8747 9.568 26.1707 8.35067 26.1707 7.08933C26.1707 4.86 28.004 3.232 30.028 3.232M30.028 2.01467C27.2267 2.01467 24.9534 4.288 24.9534 7.08933C24.9534 8.424 25.54 9.72933 26.508 10.624L23.736 18.6027L20.964 10.624C21.932 9.72933 22.5187 8.424 22.5187 7.08933C22.5187 4.288 20.2454 2.01467 17.444 2.01467C14.6427 2.01467 12.3694 4.244 12.3694 7.08933C12.3694 9.06933 13.4987 10.7853 15.1707 11.5333L14.7014 21.492L11.1814 17.7373C11.46 17.2093 11.724 16.4907 11.724 15.6987C11.724 13.1027 9.46538 10.8147 6.89871 10.8147C4.33204 10.8147 2.01471 13 2.01471 15.6987C2.01471 17.9133 3.70138 19.9667 5.72538 20.4213L12.3694 36.3933C7.57338 37.5813 7.58804 40.8373 7.58804 44.284V44.7827V46H39.884V44.284C39.884 40.852 39.8987 37.5813 35.1027 36.3933L41.7467 20.4213C43.7854 19.952 45.4574 17.9133 45.4574 15.6987C45.4574 13.0147 43.272 10.8147 40.5734 10.8147C37.8747 10.8147 35.748 13.088 35.748 15.6987C35.748 16.476 36.012 17.1947 36.2907 17.7373L32.7707 21.492L32.3014 11.5187C33.9587 10.7707 35.1027 9.02533 35.1027 7.08933C35.1027 4.244 32.8734 2.01467 30.028 2.01467Z" fill="#383532"/>
</g>
<defs>
<clipPath id="clip0_119_7649">
<rect width="48" height="48" fill="white"/>
</clipPath>
</defs>
</svg>
