<svg width="48" height="48" viewBox="0 0 48 48" fill="none" xmlns="http://www.w3.org/2000/svg">
<g clip-path="url(#clip0_119_7665)">
<path d="M24.38 2.66C22.9427 2.66 21.3147 2.924 21.2267 2.93867L20.7427 2.99733L20.6693 3.46667L20.0533 9.04H17.1347L16.0933 4.18533L15.932 3.74533H15.4627C13.7173 3.74533 12.0747 4.156 10.564 4.97733L10.1827 5.18267L10.212 5.608L10.7547 12.252V12.2813C11.0773 14.6573 12.2947 16.1387 14.6853 17.0187C14.348 19.8493 12.7933 33.1227 12.3973 36.276C7.61601 37.4053 7.63068 40.544 7.63068 44.152V44.6947V45.3547H41.0853V44.1667C41.0853 40.5587 41.1 37.42 36.3187 36.2907C35.9227 33.1373 34.368 19.864 34.0307 17.0333C36.4213 16.1533 37.6387 14.672 37.9613 12.296V12.2667L38.504 5.62267L38.5333 5.19733L38.152 4.992C36.6413 4.17067 34.9987 3.76 33.2533 3.76H32.784L32.6373 4.2L31.596 9.05467H28.6773L28.0613 3.48133L27.9733 3.012L27.504 2.95333C27.416 2.95333 25.788 2.67467 24.3507 2.67467L24.38 2.66Z" fill="#E8E6E1"/>
<path d="M24.38 38.08C38.5626 38.08 40.044 39.6493 40.044 39.6493H40.2346C39.604 36.3053 32.168 35.924 32.168 35.924H16.6653C16.6653 35.924 8.96531 36.188 8.53998 39.6493H8.73064C8.73064 39.6493 10.1973 38.08 24.3946 38.08H24.38Z" fill="white"/>
<path d="M14.5094 3.83333C10.9747 6.25333 12.2947 15.3173 12.2947 15.3173C10.036 14.5987 10.0947 4.87467 10.0947 4.87467C10.0947 4.87467 15.5214 3.144 14.5094 3.83333Z" fill="white"/>
<path d="M25.436 3.11467C21.4907 3.83333 19.9654 9.58267 19.9654 9.58267C19.7307 7.5 21.124 2.82133 21.124 2.82133C21.124 2.82133 26.5654 2.90933 25.436 3.11467Z" fill="white"/>
<path d="M35.9667 4.30267C33.4147 5.652 31.4347 9.58267 31.4347 9.58267C31.4347 7.86667 33.2387 3.33467 33.2387 3.33467C33.2387 3.33467 36.92 3.804 35.9667 4.30267Z" fill="white"/>
<path d="M35.5413 16.256C39.032 16.344 38.416 5.46133 38.416 5.46133L36.3187 4.12667C35.7467 7.60267 34.9987 12.9853 33.2973 14.4813C31.7427 15.8453 30.804 16.168 30.5693 16.2267C30.1147 16.168 29.6307 16.1093 29.1027 16.0653C24.3213 15.64 17.3693 17.004 17.3693 17.004C17.3693 17.004 24.4093 16.5787 28.0027 21.096C31.5813 25.584 31.9627 35.3813 31.9627 35.3813C34.324 35.8213 36.084 36.3053 36.084 36.3053L33.8693 17.3853C33.8693 17.3853 35.072 16.256 35.5413 16.2707V16.256Z" fill="#B3ACA8"/>
<path d="M14.8613 17.0627C18.308 16.564 22.18 16.212 24.38 16.212C26.58 16.212 30.408 16.5493 33.84 17.048" stroke="#383532" stroke-width="0.9" stroke-miterlimit="10"/>
<path d="M24.38 3.32C25.788 3.32 27.4453 3.59867 27.4453 3.59867L28.1493 9.71467H32.0947L33.2973 4.42C34.94 4.42 36.4653 4.80133 37.888 5.564L37.3453 12.1933C37.0667 14.2173 36.1427 15.684 33.356 16.564C33.356 16.564 35.4827 34.6333 35.7613 36.804C40.704 37.772 40.4547 40.6173 40.4547 44.6653H8.32C8.32 40.6173 8.08533 37.772 13.0133 36.804C13.3067 34.6187 15.4187 16.564 15.4187 16.564C12.632 15.684 11.6933 14.2173 11.4293 12.1933L10.8867 5.564C12.3093 4.80133 13.8347 4.42 15.4773 4.42L16.68 9.71467H20.6253L21.3293 3.59867C21.3293 3.59867 22.972 3.32 24.3947 3.32M24.3947 2C22.8987 2 21.1973 2.27867 21.124 2.29333L20.1413 2.45467L20.024 3.43733L19.452 8.39467H17.736L16.768 4.12667L16.5333 3.1H15.4773C13.6293 3.1 11.8693 3.54 10.256 4.40533L9.49333 4.816L9.56667 5.66667L10.1093 12.296C10.4467 14.8333 11.664 16.4467 13.9813 17.444C13.5707 20.92 12.2507 32.1547 11.8107 35.748C6.98533 37.0973 7 40.676 7 44.152V44.68V46H41.7747V44.152C41.7747 40.676 41.7893 37.0973 36.9493 35.748C36.5093 32.1693 35.1893 20.92 34.7787 17.444C37.1107 16.4467 38.3133 14.848 38.6507 12.3693L39.208 5.66667L39.2813 4.80133L38.5187 4.39067C36.9053 3.52533 35.16 3.08533 33.2973 3.08533H32.2413L32.0067 4.112L31.0387 8.38H29.3227L28.7507 3.42267L28.6333 2.44L27.6507 2.27867C27.6507 2.27867 25.876 1.98533 24.38 1.98533L24.3947 2Z" fill="#383532"/>
<path d="M24.38 36.1C28.2666 36.1 31.6986 36.2613 34.7053 36.6427C35.336 36.716 35.908 36.8333 36.4066 36.9507L36.6266 35.6453C36.0986 35.5133 35.512 35.4107 34.8666 35.3227C31.9186 34.9413 28.4866 34.7653 24.3653 34.7653C20.244 34.7653 16.812 34.9413 13.864 35.3227C13.1893 35.4107 12.5733 35.528 12.0306 35.66L12.2946 36.9507C12.808 36.8187 13.38 36.716 14.0253 36.628C17.032 36.2467 20.4786 36.0853 24.3506 36.0853L24.38 36.1Z" fill="#383532"/>
</g>
<defs>
<clipPath id="clip0_119_7665">
<rect width="48" height="48" fill="white"/>
</clipPath>
</defs>
</svg>
