<svg width="48" height="48" viewBox="0 0 48 48" fill="none" xmlns="http://www.w3.org/2000/svg">
<g clip-path="url(#clip0_119_7642)">
<path d="M23.488 2.60133C21.3613 2.60133 19.6307 4.332 19.6307 6.45867C19.6307 7.44133 20.012 8.36533 20.6573 9.084C19.792 9.788 18.076 11.2693 16.3307 13.3373C13.104 17.1947 11.4027 21.2427 11.4027 25.056C11.4027 31.26 14.2187 35 16.3013 36.7453C15.612 36.804 14.952 36.8773 14.3213 36.9507C8.58666 37.684 8.58666 40.764 8.60132 44.328V44.812V45.4133H38.888V44.328C38.888 40.764 38.9027 37.684 33.168 36.9507C32.5373 36.8773 31.8773 36.804 31.188 36.7453C33.2707 35 36.0867 31.26 36.0867 25.056C36.0867 18.852 32.068 14.3347 29.4867 11.768L28.944 11.2253L28.548 11.8853C28.108 12.6333 25.9227 16.1973 25.82 25.188H21.7133C21.86 11.7827 27.0813 6.69333 27.14 6.64933L27.3307 6.45867V6.18C27.1693 4.17067 25.468 2.60133 23.4587 2.60133H23.488Z" fill="#E8E6E1"/>
<path d="M21.5813 9.11333C20.7893 8.74666 13.0453 15.244 11.7693 21.9173C10.5813 28.1213 12.7227 29.8373 12.5907 29.7787C12.5907 29.7347 13.4267 16.124 22.388 9.46533C22.388 9.46533 22.036 9.31866 21.5813 9.11333Z" fill="white"/>
<path d="M24.0307 3.15867C22.74 3.276 20.5107 5.15333 20.3347 7.73467C20.3347 7.73467 18.56 6.07733 20.3493 4.00933C21.7573 2.38133 24.0307 3.15867 24.0307 3.15867Z" fill="white"/>
<path d="M23.7373 38.828C36.5853 38.828 37.92 40.2507 37.92 40.2507H38.096C37.524 37.2147 30.792 36.8773 30.792 36.8773H16.7413C16.7413 36.8773 9.77467 37.112 9.39334 40.2507H9.56934C9.56934 40.2507 10.904 38.828 23.752 38.828H23.7373Z" fill="white"/>
<path d="M23.488 13.5427C24.0307 12.032 27.36 5.916 27.36 5.916L25.7027 3.17333H24.8373C27.58 6.54667 19.4693 14.2173 19.4693 20.0253C19.4693 21.7267 19.88 25.1587 21.1267 25.7893C21.1267 25.7893 22.3293 16.6813 23.4733 13.5573L23.488 13.5427Z" fill="#B3ACA8"/>
<path d="M31.7893 14.7307C38.5653 31.172 23.7227 36.1587 23.7227 36.1587L31.2027 36.7307C30.484 37.2733 35.984 35.1613 35.984 24.396C35.984 18.148 31.804 14.7307 31.804 14.7307H31.7893Z" fill="#B3ACA8"/>
<path d="M23.488 3.188C25.204 3.188 26.612 4.52267 26.744 6.20933C26.744 6.20933 21.1413 11.504 21.1413 25.76H26.436C26.436 16.828 28.5187 13.132 29.076 12.164C31.892 14.98 35.5 19.336 35.5 25.0267C35.5 32.844 30.9387 36.4813 29.4427 37.1853C30.7333 37.2587 31.9507 37.376 33.1093 37.5227C38.5507 38.212 38.3013 40.8813 38.3013 44.7973H9.188C9.188 40.8813 8.93867 38.212 14.38 37.5227C15.524 37.376 16.756 37.2733 18.0467 37.1853C16.5507 36.4813 11.9747 32.8587 11.9747 25.0267C11.9747 16.0507 21.5667 9.09867 21.5667 9.09867C20.7453 8.512 20.2027 7.544 20.2027 6.444C20.2027 4.64 21.6693 3.17333 23.4587 3.17333M23.4587 1.98533C20.9947 1.98533 19 3.98 19 6.444C19 7.35333 19.2787 8.23333 19.792 8.96667C17.1813 11.152 10.772 17.312 10.772 25.0267C10.772 30.512 12.928 34.164 14.908 36.2467C14.6733 36.276 14.4387 36.3053 14.204 36.3347C7.98533 37.1413 8 40.632 8 44.3133V44.7973V45.9853H39.4893V44.3133C39.4893 40.6173 39.504 37.1413 33.256 36.3347C33.0213 36.3053 32.8013 36.276 32.552 36.2467C34.5467 34.164 36.688 30.512 36.688 25.0267C36.688 20.3333 34.4733 15.86 29.912 11.3133L28.8267 10.228L28.0493 11.548C26.3333 14.4667 25.3653 18.94 25.248 24.5573H22.344C22.6373 11.9733 27.5067 7.104 27.5653 7.06L27.9613 6.67867L27.932 6.12133C27.756 3.804 25.8053 1.98533 23.488 1.98533H23.4587Z" fill="#383532"/>
<path d="M23.7373 37.0387C26.4067 37.0387 28.856 37.1267 31.0707 37.3173L31.6427 36.1733C29.3547 35.9533 26.744 35.8507 23.7373 35.8507C20.7013 35.8507 18.076 35.968 15.7587 36.188L16.1107 37.3467C18.3987 37.1267 20.936 37.0387 23.7373 37.0387Z" fill="#383532"/>
</g>
<defs>
<clipPath id="clip0_119_7642">
<rect width="48" height="48" fill="white"/>
</clipPath>
</defs>
</svg>
