<svg width="48" height="48" viewBox="0 0 48 48" fill="none" xmlns="http://www.w3.org/2000/svg">
<g clip-path="url(#clip0_119_7662)">
<path d="M42.304 2H5.696C3.65476 2 2 3.65476 2 5.696V42.304C2 44.3452 3.65476 46 5.696 46H42.304C44.3452 46 46 44.3452 46 42.304V5.696C46 3.65476 44.3452 2 42.304 2Z" fill="#4A4743"/>
<path d="M24.132 4.93333H5.69602C5.28535 4.93333 4.93335 5.27067 4.93335 5.696V42.3187C4.93335 42.744 5.27068 43.0813 5.69602 43.0813H24.132V4.93333Z" fill="white"/>
<path d="M16.9453 16.2707V32.36H13.9533V18.7787H10.5507V16.2707H16.9453Z" fill="#4A4743"/>
<path d="M29.4413 31.6267C28.4293 30.9813 27.6373 30.028 27.0507 28.7813C26.464 27.5347 26.1707 26.0533 26.1707 24.3373C26.1707 22.6213 26.464 21.14 27.0507 19.8933C27.6373 18.6467 28.4293 17.6933 29.4413 17.048C30.4533 16.4027 31.5973 16.0653 32.888 16.0653C34.1787 16.0653 35.3227 16.388 36.3493 17.048C37.3613 17.708 38.168 18.6467 38.7547 19.8933C39.3413 21.14 39.6347 22.6213 39.6347 24.3373C39.6347 26.0533 39.3413 27.5347 38.7547 28.7813C38.168 30.028 37.376 30.9813 36.3493 31.6267C35.3227 32.2867 34.1787 32.6093 32.888 32.6093C31.5973 32.6093 30.4533 32.2867 29.4413 31.6267ZM35.616 28.576C36.2907 27.6227 36.6133 26.2147 36.6133 24.3227C36.6133 22.4307 36.276 21.0227 35.616 20.0693C34.9413 19.116 34.0467 18.6467 32.888 18.6467C31.7293 18.6467 30.8493 19.116 30.1893 20.0693C29.5293 21.0227 29.192 22.4453 29.192 24.3227C29.192 26.2 29.5293 27.6227 30.1893 28.576C30.864 29.5293 31.7587 29.9987 32.888 29.9987C34.0173 29.9987 34.9413 29.5293 35.616 28.576Z" fill="white"/>
</g>
<defs>
<clipPath id="clip0_119_7662">
<rect width="48" height="48" fill="white"/>
</clipPath>
</defs>
</svg>
