<svg width="48" height="48" viewBox="0 0 48 48" fill="none" xmlns="http://www.w3.org/2000/svg">
<g clip-path="url(#clip0_119_7641)">
<path d="M24.0574 2.71867C19.5107 2.71867 15.8147 6.41467 15.8147 10.9613C15.8147 13.4987 16.9734 15.8747 18.9387 17.4293L14.656 20.2453L14.3334 20.4507V20.8467C14.3334 22.02 14.612 22.548 15.052 23.3253L15.1987 23.5893L15.404 23.9707H19.452C19.276 25.98 18.7187 31.0253 12.2654 35.088C9.37602 36.9067 7.71869 40.3533 7.71869 44.5627V45.2813H40.396V44.5627C40.396 40.368 38.7387 36.9067 35.8494 35.088C29.4107 31.04 28.8534 25.98 28.6627 23.9707H32.7107L32.916 23.5893L33.0627 23.3253C33.488 22.5333 33.7814 22.02 33.7814 20.8467V20.4507L33.4587 20.2453L29.176 17.4293C31.156 15.8747 32.3147 13.4987 32.3147 10.9613C32.3147 6.41467 28.6187 2.71867 24.072 2.71867H24.0574Z" fill="#E8E6E1"/>
<path d="M18.6746 20.8467C18.9093 19.248 20.1706 17.4733 20.2146 17.444L14.1866 20.8467H18.6746Z" fill="white"/>
<path d="M24.8053 3.46667C21.916 3.73067 17.3253 7.16267 16.7973 14.2613C16.7973 14.2613 13.8933 10.0813 17.8973 5.476C21.0507 1.85333 24.8053 3.46667 24.8053 3.46667Z" fill="white"/>
<path d="M8.43731 44.5627C10.0066 39.4293 12.2066 38.7547 16.284 35.792C18.9826 33.8267 19.3493 27.872 19.3493 27.872C19.408 27.564 17.9706 30.2627 16.4306 31.5973C15.932 32.0373 12.4853 34.4133 11.0186 35.968C8.46664 38.6667 8.12931 45.5307 8.42264 44.548L8.43731 44.5627Z" fill="white"/>
<path d="M33.1067 33.3133C29.2347 30.6147 28.9853 25.3493 28.736 24.1467H32.6227L34.016 20.92C34.016 20.92 29.924 17.5907 27.9293 17.5173H28.912C28.912 17.5173 31.86 15.068 32.124 12.8973C33.136 4.25867 26.3307 3.1 26.3307 3.1C29.4107 4.64 31.7427 9.89067 28.9707 13.8067C26.9907 16.608 23.1187 17.444 23.1187 17.444H27.9C27.9 17.444 31.2733 21.0373 27.856 23.252H15.14L15.3013 24.1467H19.408C19.408 24.1467 24.16 28.9573 28.1053 32.668C31.8893 36.232 37.624 36.7307 37.624 36.7307C37.624 36.7307 35.072 34.6773 33.1067 33.2987V33.3133Z" fill="#B3ACA8"/>
<path d="M24.0573 3.43733C28.208 3.43733 31.5813 6.81067 31.5813 10.9613C31.5813 13.4547 30.3493 15.7867 28.2813 17.1947L27.8853 17.4587L33.0333 20.8613C33.0333 21.9613 32.7693 22.3133 32.256 23.2667H27.8413L27.8853 23.6187C28.0613 25.2613 28.1787 31.1427 35.4533 35.704C38.1227 37.3907 39.6627 40.6173 39.6627 44.5627H8.43733C8.43733 40.6173 9.97733 37.376 12.6467 35.704C19.936 31.128 20.0387 25.2467 20.2147 23.6187L20.2587 23.2667H15.844C15.3307 22.3133 15.0667 21.9613 15.0667 20.8613L20.2147 17.4587L19.8187 17.1947C17.7507 15.7867 16.5333 13.4693 16.5333 10.9613C16.5333 6.81067 19.9067 3.43733 24.0573 3.43733ZM24.0573 2C19.1147 2 15.096 6.01867 15.096 10.9613C15.096 13.3813 16.0787 15.684 17.7653 17.3413L14.2747 19.644L13.6293 20.0693V20.8467C13.6293 22.2107 13.9813 22.856 14.436 23.6773L14.568 23.9267L14.9787 24.6747H18.66C18.3667 26.9187 17.3253 31.0547 11.884 34.472C8.77467 36.4227 7 40.0893 7 44.548V45.9853H41.1147V44.548C41.1147 40.0893 39.34 36.4227 36.2307 34.472C30.804 31.0693 29.748 26.9187 29.4547 24.6747H33.136L33.5467 23.9267L33.6787 23.6773C34.1333 22.856 34.4853 22.196 34.4853 20.8467V20.0693L33.84 19.644L30.3493 17.3413C32.0507 15.6693 33.0187 13.3813 33.0187 10.9613C33.0187 6.01867 29 2 24.0573 2Z" fill="#383532"/>
</g>
<defs>
<clipPath id="clip0_119_7641">
<rect width="48" height="48" fill="white"/>
</clipPath>
</defs>
</svg>
